<svg id="svg" version="1.1" xmlns="http://www.w3.org/2000/svg" xmlns:xlink="http://www.w3.org/1999/xlink" width="400" height="400" viewBox="0, 0, 400,400"><g id="svgg"><path id="path0" d="M53.600 154.732 L 53.600 218.665 54.700 219.232 C 55.305 219.545,56.120 220.088,56.510 220.439 C 56.901 220.791,57.936 221.315,58.810 221.603 C 59.685 221.892,60.400 222.288,60.400 222.484 C 60.400 222.680,61.075 223.122,61.900 223.465 C 62.725 223.809,63.490 224.226,63.600 224.392 C 63.710 224.559,64.700 225.173,65.800 225.757 C 66.900 226.341,68.430 227.205,69.200 227.676 C 71.010 228.785,75.858 231.531,77.400 232.322 C 78.060 232.660,78.696 233.079,78.814 233.253 C 78.932 233.427,79.877 233.944,80.914 234.403 C 81.951 234.862,82.800 235.397,82.800 235.592 C 82.800 235.787,83.162 236.061,83.604 236.201 C 84.046 236.342,85.618 237.164,87.098 238.028 C 88.577 238.893,89.924 239.600,90.092 239.600 C 90.259 239.600,90.442 220.733,90.498 197.674 L 90.600 155.748 92.200 156.504 C 93.080 156.920,94.970 157.959,96.400 158.812 C 97.830 159.665,99.803 160.776,100.784 161.282 C 101.765 161.787,102.890 162.515,103.284 162.900 C 103.678 163.285,104.257 163.600,104.571 163.600 C 104.886 163.600,105.381 163.828,105.671 164.108 C 106.167 164.584,107.897 165.573,111.900 167.669 C 112.835 168.159,113.600 168.673,113.600 168.811 C 113.600 168.950,114.545 169.497,115.700 170.027 C 116.855 170.558,117.890 171.110,118.000 171.255 C 118.110 171.400,119.100 172.011,120.200 172.613 C 121.300 173.215,122.920 174.128,123.800 174.642 C 125.785 175.802,128.911 177.598,130.376 178.420 C 130.984 178.761,132.363 179.597,133.441 180.277 C 134.518 180.958,135.805 181.636,136.300 181.784 C 136.795 181.933,137.200 182.194,137.200 182.366 C 137.200 182.538,137.965 183.016,138.900 183.428 C 139.835 183.841,140.702 184.320,140.826 184.493 C 140.951 184.667,141.976 185.302,143.105 185.905 C 146.938 187.950,152.199 190.930,152.400 191.169 C 152.510 191.300,153.315 191.766,154.189 192.204 C 155.063 192.642,155.963 193.141,156.189 193.313 C 157.210 194.090,161.890 196.721,162.700 196.973 L 163.600 197.254 163.600 175.614 C 163.600 155.370,163.555 153.958,162.900 153.717 C 162.515 153.575,162.110 153.351,162.000 153.220 C 161.672 152.828,156.037 149.666,155.186 149.396 C 154.754 149.258,154.400 149.006,154.400 148.834 C 154.400 148.662,153.635 148.184,152.700 147.772 C 151.765 147.360,150.871 146.819,150.713 146.571 C 150.556 146.322,149.611 145.807,148.613 145.426 C 147.616 145.045,146.800 144.599,146.800 144.435 C 146.800 144.271,145.900 143.715,144.800 143.200 C 143.700 142.685,142.800 142.154,142.800 142.021 C 142.800 141.888,141.992 141.424,141.004 140.990 C 140.016 140.555,139.206 140.096,139.204 139.968 C 139.202 139.841,138.255 139.301,137.100 138.768 C 135.945 138.236,134.939 137.661,134.863 137.490 C 134.788 137.320,134.117 136.925,133.372 136.614 C 132.627 136.303,131.789 135.849,131.509 135.606 C 130.790 134.981,124.732 131.600,124.332 131.600 C 124.149 131.600,124.000 131.454,124.000 131.276 C 124.000 131.098,123.012 130.513,121.804 129.976 C 120.596 129.439,119.606 128.867,119.604 128.705 C 119.602 128.543,118.931 128.131,118.114 127.790 C 117.297 127.448,116.532 127.020,116.414 126.838 C 116.296 126.656,115.410 126.107,114.444 125.617 C 113.478 125.127,112.488 124.556,112.244 124.347 C 112.000 124.139,111.038 123.570,110.107 123.084 C 108.061 122.016,101.832 118.447,98.800 116.606 C 97.590 115.871,95.790 114.862,94.800 114.363 C 93.810 113.863,92.910 113.342,92.800 113.204 C 92.560 112.902,89.224 110.996,87.000 109.890 C 86.120 109.453,85.310 108.973,85.200 108.824 C 85.000 108.553,82.422 107.053,79.400 105.449 C 78.520 104.982,77.710 104.498,77.600 104.374 C 77.490 104.250,75.780 103.275,73.800 102.208 C 71.820 101.142,70.104 100.125,69.986 99.950 C 69.868 99.775,68.968 99.252,67.986 98.788 C 67.004 98.324,65.210 97.333,64.000 96.585 C 62.790 95.838,61.350 94.999,60.800 94.722 C 60.250 94.445,58.864 93.629,57.719 92.909 C 56.575 92.189,55.450 91.600,55.219 91.600 C 54.989 91.600,54.800 91.420,54.800 91.200 C 54.800 90.980,54.530 90.800,54.200 90.800 C 53.669 90.800,53.600 98.170,53.600 154.732 M163.200 260.512 C 163.200 280.350,163.248 281.858,163.900 282.327 C 164.966 283.095,167.594 284.624,169.600 285.644 C 170.590 286.147,171.638 286.793,171.929 287.079 C 172.219 287.366,172.637 287.600,172.857 287.600 C 173.076 287.600,174.055 288.150,175.033 288.822 C 176.010 289.495,177.347 290.232,178.005 290.462 C 178.662 290.691,179.200 291.010,179.200 291.171 C 179.200 291.332,180.100 291.885,181.200 292.400 C 182.300 292.915,183.200 293.450,183.200 293.588 C 183.200 293.726,183.828 294.066,184.596 294.344 C 185.363 294.622,186.218 295.065,186.496 295.330 C 187.163 295.967,192.614 299.087,193.614 299.404 C 194.046 299.542,194.400 299.800,194.400 299.978 C 194.400 300.156,195.290 300.684,196.377 301.152 C 197.465 301.620,198.467 302.185,198.605 302.407 C 198.742 302.630,199.427 303.083,200.127 303.414 C 200.827 303.746,202.930 304.920,204.800 306.025 C 206.670 307.129,208.515 308.137,208.900 308.263 C 209.285 308.390,209.600 308.622,209.600 308.778 C 209.600 308.935,210.545 309.499,211.700 310.032 C 212.855 310.564,213.859 311.133,213.932 311.295 C 214.004 311.458,214.814 311.952,215.732 312.393 C 216.649 312.835,218.911 314.097,220.759 315.198 C 222.606 316.299,224.271 317.200,224.459 317.200 C 224.646 317.200,224.800 317.349,224.800 317.532 C 224.800 317.714,225.745 318.298,226.900 318.830 C 228.055 319.362,229.249 320.034,229.553 320.323 C 229.857 320.612,230.802 321.127,231.653 321.468 C 232.504 321.808,233.200 322.214,233.200 322.369 C 233.200 322.695,236.026 324.107,236.243 323.891 C 236.801 323.332,236.380 280.589,235.816 280.471 C 235.477 280.400,235.200 280.205,235.200 280.039 C 235.200 279.873,234.255 279.301,233.100 278.768 C 231.945 278.236,230.651 277.485,230.225 277.100 C 229.798 276.715,229.226 276.400,228.953 276.400 C 228.680 276.400,228.219 276.166,227.929 275.879 C 227.638 275.593,226.590 274.947,225.600 274.444 C 224.610 273.942,222.810 272.924,221.600 272.183 C 220.390 271.442,218.590 270.430,217.600 269.934 C 216.610 269.438,215.557 268.795,215.260 268.505 C 214.963 268.215,214.153 267.703,213.460 267.367 C 212.767 267.032,211.365 266.272,210.345 265.678 C 209.325 265.085,207.525 264.047,206.345 263.371 C 205.165 262.695,203.520 261.750,202.688 261.271 C 201.856 260.792,200.954 260.400,200.682 260.400 C 200.411 260.400,197.041 258.580,193.194 256.355 C 189.347 254.131,182.690 250.284,178.400 247.806 C 174.110 245.328,169.011 242.378,167.068 241.250 C 165.126 240.123,163.461 239.200,163.368 239.200 C 163.276 239.200,163.200 248.790,163.200 260.512 " stroke="none" fill="#04b3fc" fill-rule="evenodd"></path><path id="path1" d="M272.000 91.081 C 272.000 91.268,271.192 91.776,270.204 92.210 C 269.216 92.645,268.406 93.115,268.404 93.256 C 268.402 93.397,267.635 93.900,266.700 94.374 C 265.765 94.848,264.010 95.842,262.800 96.583 C 261.590 97.324,259.790 98.338,258.800 98.837 C 257.810 99.337,256.906 99.881,256.792 100.047 C 256.677 100.214,256.137 100.540,255.592 100.773 C 255.046 101.005,253.430 101.912,252.000 102.787 C 250.570 103.662,248.590 104.788,247.600 105.289 C 246.610 105.790,245.739 106.337,245.665 106.504 C 245.591 106.671,244.646 107.188,243.565 107.653 C 242.484 108.118,241.600 108.644,241.600 108.822 C 241.600 109.000,241.209 109.270,240.732 109.422 C 240.254 109.573,238.949 110.280,237.832 110.993 C 236.714 111.706,235.395 112.416,234.900 112.571 C 234.405 112.727,234.000 113.022,234.000 113.227 C 234.000 113.432,233.811 113.600,233.581 113.600 C 233.350 113.600,232.225 114.194,231.081 114.920 C 229.936 115.645,228.415 116.477,227.700 116.768 C 226.985 117.059,226.400 117.433,226.400 117.600 C 226.400 117.767,225.815 118.137,225.100 118.424 C 224.385 118.710,223.080 119.427,222.200 120.017 C 221.320 120.607,220.195 121.217,219.700 121.372 C 219.205 121.527,218.800 121.805,218.800 121.989 C 218.800 122.173,217.810 122.734,216.600 123.235 C 215.390 123.737,214.400 124.278,214.400 124.438 C 214.400 124.598,213.545 125.137,212.500 125.637 C 211.455 126.136,210.504 126.685,210.386 126.857 C 210.268 127.029,209.503 127.448,208.686 127.790 C 207.869 128.131,207.199 128.543,207.199 128.705 C 207.198 128.867,206.379 129.336,205.380 129.747 C 204.380 130.158,203.346 130.699,203.081 130.948 C 202.817 131.198,201.883 131.761,201.006 132.201 C 200.129 132.640,199.161 133.236,198.853 133.524 C 198.546 133.813,197.598 134.327,196.747 134.668 C 195.896 135.008,195.200 135.428,195.200 135.600 C 195.200 135.772,194.480 136.201,193.600 136.553 C 192.720 136.905,192.000 137.351,192.000 137.542 C 192.000 137.734,191.187 138.202,190.193 138.582 C 189.199 138.961,188.151 139.507,187.864 139.794 C 187.577 140.081,186.545 140.705,185.571 141.180 C 184.597 141.656,182.810 142.662,181.600 143.417 C 180.390 144.171,178.635 145.159,177.700 145.613 C 176.765 146.066,175.999 146.564,175.999 146.719 C 175.998 146.873,175.188 147.333,174.199 147.740 C 173.209 148.146,172.400 148.629,172.400 148.813 C 172.400 148.996,172.009 149.270,171.532 149.422 C 171.054 149.573,169.749 150.280,168.632 150.993 C 167.514 151.706,166.195 152.416,165.700 152.571 C 165.205 152.727,164.800 153.022,164.800 153.227 C 164.800 153.432,164.530 153.600,164.200 153.600 C 163.674 153.600,163.600 156.289,163.600 175.400 C 163.600 187.390,163.735 197.197,163.900 197.193 C 164.065 197.190,164.920 196.745,165.800 196.205 C 166.680 195.665,168.165 194.864,169.100 194.426 C 170.035 193.987,170.800 193.478,170.800 193.295 C 170.800 193.111,171.428 192.734,172.196 192.456 C 172.963 192.178,173.818 191.728,174.096 191.455 C 174.373 191.182,175.500 190.530,176.600 190.007 C 177.700 189.483,178.690 188.933,178.800 188.783 C 178.910 188.634,179.630 188.191,180.400 187.800 C 181.170 187.409,181.890 186.968,182.000 186.822 C 182.110 186.675,183.010 186.152,184.000 185.659 C 186.037 184.645,188.801 183.033,189.400 182.512 C 189.620 182.320,190.700 181.734,191.800 181.209 C 192.900 180.684,193.890 180.140,194.000 180.000 C 194.223 179.715,198.290 177.430,200.300 176.460 C 201.015 176.116,201.600 175.696,201.600 175.528 C 201.600 175.360,202.500 174.835,203.600 174.362 C 204.700 173.889,205.600 173.371,205.600 173.211 C 205.600 173.052,206.275 172.623,207.100 172.258 C 207.925 171.893,209.950 170.787,211.600 169.800 C 213.250 168.813,215.046 167.814,215.592 167.578 C 216.137 167.343,216.677 167.005,216.792 166.827 C 216.976 166.542,218.035 165.937,222.483 163.576 C 223.130 163.233,223.781 162.778,223.929 162.565 C 224.078 162.352,224.991 161.829,225.959 161.402 C 226.926 160.975,227.918 160.440,228.164 160.213 C 228.579 159.829,229.468 159.324,234.500 156.611 L 236.400 155.587 236.400 175.979 L 236.400 196.372 235.500 196.846 C 235.005 197.106,234.510 197.447,234.400 197.603 C 234.290 197.759,233.390 198.275,232.400 198.750 C 230.509 199.657,227.679 201.299,227.000 201.884 C 226.780 202.074,225.790 202.635,224.800 203.132 C 223.810 203.629,222.010 204.644,220.800 205.387 C 219.590 206.131,217.790 207.157,216.800 207.669 C 215.810 208.181,214.910 208.694,214.800 208.809 C 214.432 209.195,208.699 212.400,208.376 212.400 C 208.200 212.400,207.808 212.649,207.503 212.954 C 207.199 213.258,206.151 213.912,205.175 214.407 C 204.199 214.902,203.310 215.436,203.200 215.594 C 203.090 215.751,201.219 216.852,199.043 218.040 C 196.867 219.228,194.257 220.688,193.243 221.283 C 192.229 221.879,190.770 222.682,190.000 223.067 C 189.230 223.452,188.240 224.066,187.800 224.432 C 187.360 224.797,186.529 225.345,185.954 225.648 C 182.192 227.632,180.575 228.536,180.400 228.753 C 180.290 228.889,179.390 229.419,178.400 229.931 C 177.410 230.443,175.610 231.469,174.400 232.213 C 173.190 232.956,171.390 233.970,170.400 234.466 C 169.410 234.962,168.390 235.571,168.134 235.821 C 167.878 236.071,167.113 236.505,166.434 236.786 C 165.755 237.067,165.200 237.436,165.200 237.605 C 165.200 237.775,164.750 238.026,164.200 238.164 C 162.868 238.498,162.939 238.879,164.500 239.770 C 165.215 240.179,167.420 241.458,169.400 242.613 C 196.105 258.196,201.596 261.178,201.601 260.100 C 201.602 259.935,202.421 259.464,203.420 259.053 C 204.420 258.642,205.454 258.101,205.719 257.852 C 205.983 257.602,206.920 257.039,207.800 256.599 C 208.680 256.160,209.490 255.683,209.600 255.541 C 209.797 255.286,212.362 253.826,215.300 252.297 C 216.125 251.868,216.800 251.388,216.800 251.232 C 216.800 251.075,217.790 250.537,219.000 250.035 C 220.210 249.534,221.200 248.973,221.200 248.789 C 221.200 248.605,221.603 248.326,222.095 248.170 C 222.587 248.014,223.660 247.442,224.480 246.900 C 226.253 245.727,227.993 244.740,230.283 243.609 C 231.209 243.151,232.065 242.618,232.186 242.423 C 232.306 242.229,233.258 241.658,234.302 241.155 C 235.346 240.653,236.438 240.007,236.729 239.721 C 237.019 239.434,237.433 239.200,237.648 239.200 C 237.863 239.200,239.023 238.570,240.227 237.800 C 241.431 237.030,242.579 236.400,242.779 236.400 C 242.979 236.400,243.381 236.166,243.671 235.879 C 243.962 235.593,245.043 234.952,246.074 234.456 C 247.105 233.960,248.005 233.429,248.074 233.277 C 248.143 233.125,248.830 232.674,249.600 232.276 C 250.370 231.877,252.080 230.935,253.400 230.183 C 254.720 229.430,256.520 228.427,257.400 227.953 C 258.280 227.480,259.090 226.969,259.200 226.819 C 259.310 226.668,260.255 226.136,261.300 225.637 C 262.345 225.137,263.200 224.592,263.200 224.425 C 263.200 224.258,263.875 223.817,264.700 223.446 C 266.638 222.573,270.532 220.416,270.796 220.069 C 270.908 219.921,271.540 219.523,272.200 219.185 L 273.400 218.569 273.400 154.790 C 273.400 94.366,273.363 91.004,272.700 90.876 C 272.315 90.802,272.000 90.894,272.000 91.081 M343.817 91.948 C 342.727 92.526,341.478 93.315,341.042 93.700 C 340.606 94.085,340.058 94.408,339.825 94.417 C 339.591 94.426,338.140 95.231,336.600 96.205 C 335.060 97.180,332.996 98.349,332.014 98.804 C 331.032 99.259,330.132 99.771,330.014 99.942 C 329.794 100.260,324.311 103.388,320.732 105.236 C 319.629 105.805,318.608 106.440,318.463 106.647 C 318.318 106.853,317.435 107.359,316.500 107.772 C 315.565 108.184,314.800 108.662,314.800 108.834 C 314.800 109.006,314.413 109.269,313.940 109.419 C 313.467 109.569,312.297 110.165,311.340 110.743 L 309.600 111.794 309.600 133.340 L 309.600 154.887 310.539 154.651 C 311.368 154.443,315.532 152.150,316.600 151.313 C 316.820 151.141,317.900 150.564,319.000 150.032 C 320.100 149.500,321.090 148.940,321.200 148.788 C 321.310 148.636,322.030 148.191,322.800 147.800 C 323.570 147.409,324.290 146.968,324.400 146.822 C 324.510 146.675,325.455 146.160,326.500 145.676 C 327.545 145.192,328.400 144.653,328.400 144.478 C 328.400 144.304,329.028 143.934,329.796 143.656 C 330.563 143.378,331.418 142.926,331.696 142.651 C 331.973 142.376,333.100 141.712,334.200 141.176 C 335.300 140.640,336.290 140.089,336.400 139.953 C 336.510 139.816,337.500 139.220,338.600 138.627 C 339.700 138.033,341.320 137.114,342.200 136.582 C 343.080 136.051,344.385 135.310,345.100 134.934 L 346.400 134.252 346.400 112.526 C 346.400 100.577,346.265 90.821,346.100 90.848 C 345.935 90.874,344.908 91.369,343.817 91.948 M345.600 175.539 C 345.600 175.726,344.925 176.180,344.100 176.548 C 342.517 177.254,338.877 179.302,338.200 179.866 C 337.980 180.050,336.962 180.650,335.938 181.200 C 333.724 182.389,330.809 184.058,328.600 185.402 C 327.720 185.937,326.243 186.746,325.318 187.198 C 324.392 187.651,323.402 188.242,323.118 188.511 C 322.833 188.780,321.700 189.440,320.600 189.978 C 319.500 190.516,318.420 191.114,318.200 191.308 C 317.541 191.889,314.715 193.523,312.900 194.374 C 311.965 194.813,311.200 195.337,311.200 195.539 C 311.200 195.741,310.840 196.001,310.400 196.116 C 309.613 196.322,309.600 196.662,309.600 217.572 L 309.600 238.820 308.700 239.231 C 307.187 239.923,303.898 241.775,302.000 243.004 C 300.234 244.147,298.154 245.332,294.228 247.432 C 293.144 248.012,292.017 248.726,291.724 249.019 C 291.431 249.312,290.563 249.778,289.796 250.056 C 289.028 250.334,288.400 250.683,288.400 250.834 C 288.400 250.984,287.455 251.590,286.300 252.181 C 283.177 253.780,281.623 254.663,280.872 255.266 C 280.503 255.564,279.480 256.164,278.600 256.600 C 277.720 257.036,276.910 257.499,276.800 257.628 C 276.690 257.758,275.700 258.300,274.600 258.832 C 273.500 259.364,272.251 260.115,271.825 260.500 C 271.398 260.885,270.826 261.200,270.553 261.200 C 270.280 261.200,269.819 261.425,269.529 261.700 C 269.238 261.975,268.190 262.637,267.200 263.170 C 266.210 263.704,265.310 264.246,265.200 264.374 C 265.090 264.503,264.055 265.042,262.900 265.573 C 261.745 266.103,260.800 266.659,260.800 266.808 C 260.800 266.957,260.035 267.416,259.100 267.828 C 258.165 268.241,257.310 268.699,257.200 268.848 C 257.018 269.094,255.295 270.085,251.652 272.039 C 250.911 272.437,250.011 273.005,249.652 273.301 C 249.294 273.597,248.280 274.191,247.400 274.620 C 246.520 275.049,245.710 275.504,245.600 275.631 C 245.490 275.759,244.860 276.142,244.200 276.483 C 243.010 277.097,239.339 279.181,237.800 280.115 C 237.360 280.382,236.868 280.780,236.706 281.000 C 236.129 281.785,236.343 324.000,236.924 324.000 C 237.211 324.000,238.493 323.370,239.772 322.600 C 241.051 321.830,242.255 321.200,242.448 321.200 C 242.642 321.200,243.119 320.885,243.509 320.500 C 243.898 320.115,245.158 319.364,246.309 318.832 C 247.459 318.299,248.402 317.759,248.405 317.632 C 248.407 317.504,249.172 317.043,250.105 316.606 C 251.037 316.169,251.890 315.698,252.000 315.559 C 252.110 315.419,253.100 314.825,254.200 314.238 C 255.300 313.651,256.920 312.739,257.800 312.212 C 258.680 311.684,260.300 310.767,261.400 310.173 C 262.500 309.580,263.490 308.965,263.600 308.807 C 263.710 308.648,264.520 308.186,265.400 307.780 C 266.280 307.374,267.090 306.938,267.200 306.811 C 267.540 306.419,273.183 303.259,274.014 302.996 C 274.446 302.858,274.800 302.583,274.800 302.384 C 274.800 302.185,275.700 301.635,276.800 301.162 C 277.900 300.689,278.800 300.156,278.800 299.978 C 278.800 299.800,279.205 299.528,279.700 299.373 C 280.552 299.108,285.343 296.399,286.200 295.699 C 286.420 295.519,287.410 294.965,288.400 294.468 C 289.390 293.971,291.190 292.958,292.400 292.217 C 293.610 291.476,295.410 290.457,296.400 289.953 C 297.390 289.449,298.549 288.714,298.975 288.318 C 299.402 287.923,299.974 287.600,300.247 287.600 C 300.520 287.600,300.981 287.375,301.271 287.100 C 301.562 286.825,302.700 286.164,303.800 285.632 C 304.900 285.100,305.890 284.539,306.000 284.386 C 306.110 284.233,306.983 283.678,307.940 283.154 C 308.897 282.629,310.462 281.750,311.418 281.200 C 315.034 279.118,318.643 277.089,319.800 276.487 C 320.460 276.144,321.090 275.737,321.200 275.584 C 321.310 275.430,322.300 274.825,323.400 274.238 C 324.500 273.651,326.120 272.739,327.000 272.212 C 327.880 271.684,329.500 270.767,330.600 270.173 C 331.700 269.580,332.690 268.984,332.800 268.848 C 332.910 268.711,333.720 268.242,334.600 267.804 C 335.480 267.366,336.290 266.895,336.400 266.756 C 336.578 266.532,337.609 265.951,342.136 263.521 C 342.831 263.148,343.618 262.652,343.885 262.420 C 344.152 262.187,344.827 261.788,345.385 261.534 L 346.400 261.072 346.400 218.136 C 346.400 189.779,346.264 175.200,346.000 175.200 C 345.780 175.200,345.600 175.353,345.600 175.539 " stroke="none" fill="#0484cc" fill-rule="evenodd"></path></g></svg>