<?xml version="1.0" encoding="utf-8"?>
<!-- Generator: Adobe Illustrator 24.2.0, SVG Export Plug-In . SVG Version: 6.00 Build 0)  -->
<svg version="1.1" id="Layer_1" xmlns="http://www.w3.org/2000/svg" xmlns:xlink="http://www.w3.org/1999/xlink" x="0px" y="0px"
	 viewBox="0 0 500 500" style="enable-background:new 0 0 500 500;" xml:space="preserve">
<style type="text/css">
	.st0{fill:#5D2D92;}
	.st1{fill:#FFFFFF;}
</style>
<rect class="st0" width="500" height="500"/>
<g>
	<g>
		<path class="st1" d="M178.3,209.4h-5.6v-32.1c0-2.5,0.2-5.6,0.5-9.3h-0.1c-0.5,2.2-1,3.7-1.4,4.6l-16.4,36.8h-2.7l-16.3-36.5
			c-0.5-1.1-0.9-2.7-1.4-4.9h-0.1c0.2,1.9,0.3,5,0.3,9.4v32h-5.4v-47.9h7.4l14.7,33.4c1.1,2.6,1.9,4.5,2.2,5.7h0.2
			c1-2.6,1.7-4.6,2.3-5.9l15-33.3h7V209.4z"/>
		<path class="st1" d="M193,166.5c-1,0-1.8-0.3-2.5-1c-0.7-0.7-1-1.5-1-2.5c0-1,0.3-1.9,1-2.6c0.7-0.7,1.5-1,2.5-1
			c1,0,1.9,0.3,2.6,1s1.1,1.5,1.1,2.6c0,1-0.4,1.8-1.1,2.5S194,166.5,193,166.5z M195.7,209.4h-5.5v-34.2h5.5V209.4z"/>
		<path class="st1" d="M230.1,207.8c-2.6,1.6-5.7,2.4-9.3,2.4c-4.9,0-8.8-1.6-11.8-4.8c-3-3.2-4.5-7.3-4.5-12.3
			c0-5.6,1.6-10.2,4.8-13.6c3.2-3.4,7.5-5.1,12.9-5.1c3,0,5.7,0.6,7.9,1.7v5.6c-2.5-1.8-5.3-2.7-8.1-2.7c-3.5,0-6.4,1.3-8.6,3.8
			s-3.4,5.8-3.4,9.9c0,4,1.1,7.2,3.2,9.5c2.1,2.3,4.9,3.5,8.5,3.5c3,0,5.8-1,8.4-3V207.8z"/>
		<path class="st1" d="M256.2,180.7c-1-0.7-2.3-1.1-4.1-1.1c-2.3,0-4.3,1.1-5.9,3.3c-1.6,2.2-2.4,5.2-2.4,9v17.4h-5.5v-34.2h5.5v7
			h0.1c0.8-2.4,2-4.3,3.6-5.6c1.6-1.3,3.4-2,5.4-2c1.4,0,2.5,0.2,3.3,0.5V180.7z"/>
		<path class="st1" d="M276.4,210.2c-5.1,0-9.1-1.6-12.1-4.8c-3-3.2-4.5-7.4-4.5-12.7c0-5.7,1.6-10.2,4.7-13.5
			c3.1-3.2,7.4-4.8,12.7-4.8c5.1,0,9.1,1.6,11.9,4.7c2.9,3.1,4.3,7.5,4.3,13.1c0,5.5-1.5,9.8-4.6,13.1
			C285.7,208.5,281.6,210.2,276.4,210.2z M276.8,179c-3.5,0-6.3,1.2-8.3,3.6c-2,2.4-3.1,5.7-3.1,9.9c0,4.1,1,7.2,3.1,9.6
			s4.8,3.5,8.3,3.5c3.5,0,6.3-1.1,8.2-3.4c1.9-2.3,2.9-5.6,2.9-9.8c0-4.3-1-7.6-2.9-9.9C283,180.2,280.3,179,276.8,179z"/>
		<path class="st1" d="M300.1,208.2v-5.9c3,2.2,6.3,3.3,9.8,3.3c4.8,0,7.2-1.6,7.2-4.8c0-0.9-0.2-1.7-0.6-2.3s-1-1.2-1.7-1.7
			c-0.7-0.5-1.5-0.9-2.5-1.3c-0.9-0.4-2-0.8-3.1-1.2c-1.5-0.6-2.8-1.2-4-1.8c-1.1-0.6-2.1-1.3-2.9-2.1c-0.8-0.8-1.3-1.6-1.7-2.6
			c-0.4-1-0.6-2.1-0.6-3.4c0-1.6,0.4-3,1.1-4.3c0.7-1.2,1.7-2.3,2.9-3.1c1.2-0.8,2.6-1.5,4.2-1.9c1.6-0.4,3.2-0.6,4.9-0.6
			c3,0,5.6,0.5,7.9,1.5v5.5c-2.5-1.6-5.4-2.5-8.7-2.5c-1,0-1.9,0.1-2.8,0.4c-0.8,0.2-1.5,0.6-2.1,1c-0.6,0.4-1,0.9-1.4,1.5
			c-0.3,0.6-0.5,1.2-0.5,2c0,0.9,0.2,1.6,0.5,2.2c0.3,0.6,0.8,1.1,1.4,1.6s1.4,0.9,2.3,1.3c0.9,0.4,1.9,0.8,3,1.2
			c1.5,0.6,2.9,1.2,4.1,1.8c1.2,0.6,2.2,1.3,3.1,2.1c0.8,0.8,1.5,1.7,2,2.7s0.7,2.2,0.7,3.6c0,1.7-0.4,3.2-1.1,4.4
			c-0.7,1.2-1.7,2.3-3,3.1c-1.2,0.8-2.7,1.4-4.3,1.8c-1.6,0.4-3.3,0.6-5.1,0.6C305.7,210.2,302.7,209.5,300.1,208.2z"/>
		<path class="st1" d="M345.5,210.2c-5.1,0-9.1-1.6-12.1-4.8c-3-3.2-4.5-7.4-4.5-12.7c0-5.7,1.6-10.2,4.7-13.5
			c3.1-3.2,7.4-4.8,12.7-4.8c5.1,0,9.1,1.6,11.9,4.7c2.9,3.1,4.3,7.5,4.3,13.1c0,5.5-1.5,9.8-4.6,13.1
			C354.8,208.5,350.6,210.2,345.5,210.2z M345.9,179c-3.5,0-6.3,1.2-8.3,3.6c-2,2.4-3.1,5.7-3.1,9.9c0,4.1,1,7.2,3.1,9.6
			s4.8,3.5,8.3,3.5c3.5,0,6.3-1.1,8.2-3.4c1.9-2.3,2.9-5.6,2.9-9.8c0-4.3-1-7.6-2.9-9.9C352.1,180.2,349.4,179,345.9,179z"/>
		<path class="st1" d="M388.1,163.6c-1.1-0.6-2.3-0.9-3.6-0.9c-3.8,0-5.7,2.4-5.7,7.2v5.3h8v4.7h-8v29.5h-5.4v-29.5h-5.8v-4.7h5.8
			v-5.5c0-3.6,1-6.4,3.1-8.5c2.1-2.1,4.7-3.1,7.7-3.1c1.7,0,3,0.2,4,0.6V163.6z"/>
		<path class="st1" d="M408.5,209.1c-1.3,0.7-3,1.1-5.1,1.1c-6,0-9-3.3-9-10v-20.2h-5.9v-4.7h5.9v-8.3l5.5-1.8v10.1h8.6v4.7h-8.6
			v19.3c0,2.3,0.4,3.9,1.2,4.9c0.8,1,2.1,1.5,3.9,1.5c1.4,0,2.6-0.4,3.6-1.1V209.1z"/>
	</g>
	<g>
		<path class="st1" d="M93.7,350c-2.7,0-4.9-1-6.8-2.9c-1.9-1.9-2.8-4.2-2.8-6.9c0-2.7,0.9-5,2.8-6.9c1.9-1.9,4.2-2.9,6.8-2.9
			c2.7,0,5,1,6.9,2.9c1.9,1.9,2.9,4.2,2.9,6.9c0,2.7-1,5-2.9,6.9S96.5,350,93.7,350z"/>
		<path class="st1" d="M229.6,348h-17.9l-64.1-99.3c-1.6-2.5-3-5.1-4-7.8h-0.5c0.5,2.7,0.7,8.4,0.7,17.1v90h-14.6V223.5h18.9
			l62.3,97.7c2.6,4.1,4.3,6.8,5,8.3h0.3c-0.6-3.6-0.9-9.7-0.9-18.3v-87.7h14.6V348z"/>
		<path class="st1" d="M328.3,348h-66V223.5h63.2v13.2h-48.6v41.4h45v13.1h-45v43.6h51.4V348z"/>
		<path class="st1" d="M425.9,236.7h-35.9V348h-14.6V236.7h-35.9v-13.2h86.4V236.7z"/>
	</g>
</g>
</svg>
