<?xml version="1.0" encoding="UTF-8"?>
<!DOCTYPE svg PUBLIC "-//W3C//DTD SVG 1.1//EN" "http://www.w3.org/Graphics/SVG/1.1/DTD/svg11.dtd">
<!-- Creator: CorelDRAW -->
<svg xmlns="http://www.w3.org/2000/svg" xml:space="preserve" width="6.7in" height="6.95in" style="shape-rendering:geometricPrecision; text-rendering:geometricPrecision; image-rendering:optimizeQuality; fill-rule:evenodd; clip-rule:evenodd"
viewBox="0.8 2.23 6.7 6.95"
 xmlns:xlink="http://www.w3.org/1999/xlink">
 <defs>
  <style type="text/css">
   <![CDATA[
    .fil3 {fill:none}
    .fil2 {fill:#00AFEF}
    .fil1 {fill:#373435}
    .fil6 {fill:#B75795}
    .fil0 {fill:#FEFEFE}
    .fil5 {fill:#FFF212}
    .fil4 {fill:#373435;fill-rule:nonzero}
   ]]>
  </style>
    <clipPath id="id0">
     <path d="M0.978831 2.41035l6.28732 0 0 3.54099c0,1.69348 -1.41463,3.07909 -3.14366,3.07909l0 0c-1.72903,0 -3.14366,-1.38561 -3.14366,-3.07909l0 -3.54099z"/>
    </clipPath>
 </defs>
 <g id="Layer_x0020_1">
  <metadata id="CorelCorpID_0Corel-Layer"/>
  <g id="_604936456">
   <path id="_604929856" class="fil0" d="M0.978831 2.41035l6.28732 0 0 3.54099c0,1.69348 -1.41463,3.07909 -3.14366,3.07909l0 0c-1.72903,0 -3.14366,-1.38561 -3.14366,-3.07909l0 -3.54099z"/>
   <g style="clip-path:url(#id0)">
    <g>
     <g>
      <path id="_6049312961" class="fil1" d="M3.13737 4.23396c0.0361654,0 0.0656693,0.0295039 0.0656693,0.0656772 0,0.0325079 -0.0238465,0.0596142 -0.054937,0.0647717l0 0.0686142 0.0465276 0c0.00338189,-0.0330394 0.0314213,-0.0589567 0.0653307,-0.0589567 0.0361693,0 0.0656732,0.0295 0.0656732,0.0656772 0,0.0361693 -0.0295039,0.0656693 -0.0656732,0.0656693 -0.0272402,0 -0.0506929,-0.0167323 -0.0606142,-0.0404449l-0.0512441 0 0 0.247059 2.75591e-005 0c0.030752,0.120079 0.0936969,0.229594 0.162323,0.330748l-0.102929 -0.0532362c0.0220157,0.0603307 0.0474882,0.120673 0.0745354,0.181012 -0.0473189,-0.039122 -0.0925945,-0.0827756 -0.134874,-0.146972 0.0058189,0.0938543 5.51181e-005,0.170476 -0.0192008,0.239256 -0.00935433,-0.0804567 -0.0255827,-0.160913 -0.0148386,-0.241354 -0.0473189,0.0615315 -0.089,0.11115 -0.136327,0.152622 0.031437,-0.0620394 0.0581693,-0.128776 0.0745354,-0.205862l-0.0958346 0.0567913c0.0709724,-0.0839843 0.13461,-0.181201 0.16774,-0.312453l0 -0.24761 -0.0566299 0c-0.0099252,0.0237126 -0.033374,0.0404449 -0.0606102,0.0404449 -0.0361732,0 -0.0656772,-0.0295 -0.0656772,-0.0656693 0,-0.0361772 0.0295039,-0.0656772 0.0656772,-0.0656772 0.0339016,0 0.0619409,0.0259173 0.0653268,0.0589567l0.0519134 0 0 -0.0692598c-0.0294252,-0.00649213 -0.0515669,-0.0327992 -0.0515669,-0.064126 0,-0.0361732 0.0295,-0.0656772 0.0656772,-0.0656772z"/>
      <path id="_604936792" class="fil1" d="M5.11636 4.22521c0.0361693,0 0.0656732,0.0295 0.0656732,0.0656772 0,0.0325079 -0.0238504,0.0596142 -0.054937,0.0647717l0 0.0686142 0.0465236 0c0.00338583,-0.0330394 0.0314252,-0.0589567 0.0653346,-0.0589567 0.0361693,0 0.0656693,0.0295 0.0656693,0.0656732 0,0.0361693 -0.0295,0.0656732 -0.0656693,0.0656732 -0.0272441,0 -0.0506929,-0.0167362 -0.0606181,-0.0404488l-0.0512402 0 0 0.247063 2.3622e-005 0c0.030752,0.120079 0.0936969,0.229594 0.162327,0.330748l-0.102929 -0.0532402c0.0220118,0.0603346 0.0474843,0.120677 0.0745354,0.181016 -0.0473189,-0.039126 -0.0925945,-0.0827756 -0.134874,-0.146976 0.0058189,0.0938583 5.11811e-005,0.17048 -0.0192008,0.23926 -0.00935433,-0.0804567 -0.0255866,-0.160917 -0.0148386,-0.241354 -0.0473189,0.0615315 -0.0890039,0.111146 -0.136331,0.152622 0.0314409,-0.0620394 0.0581693,-0.12878 0.0745354,-0.205862l-0.0958307 0.0567913c0.0709724,-0.0839843 0.134606,-0.181201 0.167736,-0.312453l0 -0.247614 -0.056626 0c-0.0099252,0.0237126 -0.033374,0.0404488 -0.0606142,0.0404488 -0.0361732,0 -0.0656732,-0.0295039 -0.0656732,-0.0656732 0,-0.0361732 0.0295,-0.0656732 0.0656732,-0.0656732 0.0339055,0 0.0619449,0.0259173 0.0653307,0.0589567l0.0519094 0 0 -0.0692598c-0.0294252,-0.00649213 -0.0515669,-0.0327992 -0.0515669,-0.064126 0,-0.0361772 0.0295039,-0.0656772 0.0656772,-0.0656772z"/>
      <path id="_604936360" class="fil1" d="M5.80813 4.80314c0.0361693,0 0.0656732,0.0295039 0.0656732,0.0656772 0,0.0325079 -0.0238465,0.0596142 -0.054937,0.0647756l0 0.0686142 0.0465276 0c0.00338189,-0.0330394 0.0314213,-0.0589606 0.0653307,-0.0589606 0.0361693,0 0.0656732,0.0295039 0.0656732,0.0656772 0,0.0361693 -0.0295039,0.0656732 -0.0656732,0.0656732 -0.0272441,0 -0.0506929,-0.0167362 -0.0606142,-0.0404488l-0.0512441 0 0 0.247063 2.3622e-005 0c0.0307559,0.120079 0.0936969,0.229594 0.162327,0.330748l-0.102929 -0.0532402c0.0220157,0.0603346 0.0474882,0.120677 0.0745354,0.181016 -0.0473189,-0.039126 -0.0925945,-0.0827756 -0.134874,-0.146976 0.0058189,0.0938583 5.11811e-005,0.17048 -0.0192008,0.23926 -0.00935433,-0.0804567 -0.0255866,-0.160917 -0.0148386,-0.241354 -0.0473189,0.0615276 -0.089,0.111146 -0.136331,0.152622 0.0314409,-0.0620433 0.0581732,-0.12878 0.0745394,-0.205862l-0.0958346 0.0567874c0.0709724,-0.0839803 0.134606,-0.181197 0.16774,-0.312449l0 -0.247614 -0.0566299 0c-0.0099252,0.0237126 -0.033374,0.0404488 -0.0606102,0.0404488 -0.0361732,0 -0.0656772,-0.0295039 -0.0656772,-0.0656732 0,-0.0361732 0.0295039,-0.0656772 0.0656772,-0.0656772 0.0339016,0 0.0619409,0.0259213 0.0653268,0.0589606l0.0519134 0 0 -0.0692638c-0.0294291,-0.00648819 -0.0515709,-0.0327992 -0.0515709,-0.064126 0,-0.0361732 0.0295039,-0.0656772 0.0656772,-0.0656772z"/>
      <path id="_604935928" class="fil1" d="M6.71006 3.87494c0.0361693,0 0.0656732,0.0295039 0.0656732,0.0656772 0,0.0325079 -0.0238504,0.0596142 -0.054937,0.0647756l0 0.0686142 0.0465236 0c0.00338583,-0.0330394 0.0314252,-0.0589606 0.0653307,-0.0589606 0.0361693,0 0.0656732,0.0295039 0.0656732,0.0656772 0,0.0361693 -0.0295039,0.0656732 -0.0656732,0.0656732 -0.0272402,0 -0.050689,-0.0167362 -0.0606142,-0.0404488l-0.0512402 0 0 0.247063 2.3622e-005 0c0.030752,0.120079 0.0936969,0.229594 0.162327,0.330748l-0.102933 -0.0532402c0.0220157,0.0603346 0.0474882,0.120677 0.0745354,0.181016 -0.047315,-0.039126 -0.0925906,-0.0827756 -0.134874,-0.146976 0.00582283,0.0938583 5.51181e-005,0.17048 -0.0192008,0.23926 -0.00935433,-0.0804606 -0.0255827,-0.160917 -0.0148386,-0.241354 -0.047315,0.0615276 -0.089,0.111146 -0.136327,0.152622 0.031437,-0.0620433 0.0581693,-0.12878 0.0745354,-0.205862l-0.0958307 0.0567874c0.0709724,-0.0839803 0.134606,-0.181197 0.167736,-0.312449l0 -0.247614 -0.0566299 0c-0.00992126,0.0237126 -0.0333701,0.0404488 -0.0606102,0.0404488 -0.0361732,0 -0.0656772,-0.0295039 -0.0656772,-0.0656732 0,-0.0361732 0.0295039,-0.0656772 0.0656772,-0.0656772 0.0339055,0 0.0619449,0.0259213 0.0653268,0.0589606l0.0519134 0 0 -0.0692638c-0.0294252,-0.00648819 -0.0515669,-0.0327992 -0.0515669,-0.064126 0,-0.0361732 0.0295039,-0.0656772 0.0656772,-0.0656772z"/>
      <path id="_604935400" class="fil1" d="M5.02004 5.77513c0.0361693,0 0.0656732,0.0295039 0.0656732,0.0656772 0,0.0325079 -0.0238504,0.0596142 -0.054937,0.0647756l0 0.0686142 0.0465236 0c0.00338583,-0.0330394 0.0314252,-0.0589606 0.0653346,-0.0589606 0.0361693,0 0.0656693,0.0295039 0.0656693,0.0656772 0,0.0361693 -0.0295,0.0656732 -0.0656693,0.0656732 -0.0272441,0 -0.0506929,-0.0167362 -0.0606181,-0.0404488l-0.0512402 0 0 0.247063 2.3622e-005 0c0.030752,0.120079 0.0936969,0.229594 0.162327,0.330748l-0.102929 -0.0532402c0.0220157,0.0603346 0.0474882,0.120677 0.0745354,0.181016 -0.0473189,-0.039126 -0.0925945,-0.0827756 -0.134874,-0.146976 0.0058189,0.0938583 5.11811e-005,0.17048 -0.0192008,0.23926 -0.00935433,-0.0804567 -0.0255866,-0.160917 -0.0148386,-0.241354 -0.0473189,0.0615276 -0.0890039,0.111146 -0.136331,0.152622 0.0314409,-0.0620433 0.0581693,-0.12878 0.0745354,-0.205862l-0.0958307 0.0567874c0.0709724,-0.0839803 0.134606,-0.181197 0.167736,-0.312449l0 -0.247614 -0.056626 0c-0.0099252,0.0237126 -0.033374,0.0404488 -0.0606102,0.0404488 -0.0361772,0 -0.0656772,-0.0295039 -0.0656772,-0.0656732 0,-0.0361732 0.0295,-0.0656772 0.0656772,-0.0656772 0.0339016,0 0.0619409,0.0259213 0.0653268,0.0589606l0.0519094 0 0 -0.0692638c-0.0294252,-0.00648819 -0.0515669,-0.0327992 -0.0515669,-0.064126 0,-0.0361732 0.0295039,-0.0656772 0.0656772,-0.0656772z"/>
      <path id="_604935280" class="fil1" d="M3.21617 5.78389c0.0361693,0 0.0656732,0.0295 0.0656732,0.0656772 0,0.0325079 -0.0238504,0.0596142 -0.054937,0.0647717l0 0.0686142 0.0465236 0c0.00338583,-0.0330394 0.0314252,-0.0589567 0.0653346,-0.0589567 0.0361693,0 0.0656693,0.0295 0.0656693,0.0656732 0,0.0361693 -0.0295,0.0656732 -0.0656693,0.0656732 -0.0272441,0 -0.0506929,-0.0167362 -0.0606181,-0.0404488l-0.0512402 0 0 0.247063 2.3622e-005 0c0.030752,0.120079 0.0936969,0.229594 0.162327,0.330748l-0.102929 -0.0532402c0.0220118,0.0603346 0.0474843,0.120677 0.0745354,0.181016 -0.0473189,-0.039126 -0.0925945,-0.0827756 -0.134874,-0.146976 0.0058189,0.0938583 5.11811e-005,0.17048 -0.0192008,0.23926 -0.00935433,-0.0804567 -0.0255866,-0.160917 -0.0148386,-0.241354 -0.0473189,0.0615315 -0.0890039,0.111146 -0.136331,0.152622 0.0314409,-0.0620394 0.0581693,-0.12878 0.0745354,-0.205862l-0.0958307 0.0567913c0.0709724,-0.0839843 0.134606,-0.181201 0.167736,-0.312453l0 -0.247614 -0.056626 0c-0.0099252,0.0237126 -0.033374,0.0404488 -0.0606142,0.0404488 -0.0361732,0 -0.0656732,-0.0295039 -0.0656732,-0.0656732 0,-0.0361732 0.0295,-0.0656732 0.0656732,-0.0656732 0.0339055,0 0.0619449,0.0259173 0.0653307,0.0589567l0.0519094 0 0 -0.0692598c-0.0294252,-0.00649213 -0.0515669,-0.0327992 -0.0515669,-0.064126 0,-0.0361772 0.0295039,-0.0656772 0.0656772,-0.0656772z"/>
      <path id="_604925608" class="fil1" d="M4.11811 6.48441c0.0361693,0 0.0656693,0.0295039 0.0656693,0.0656772 0,0.0325079 -0.0238465,0.0596142 -0.054937,0.0647717l0 0.0686142 0.0465276 0c0.00338189,-0.0330354 0.0314252,-0.0589567 0.0653307,-0.0589567 0.0361693,0 0.0656732,0.0295039 0.0656732,0.0656772 0,0.0361693 -0.0295039,0.0656732 -0.0656732,0.0656732 -0.0272402,0 -0.0506929,-0.0167362 -0.0606142,-0.0404488l-0.0512441 0 0 0.247063 2.75591e-005 0c0.030752,0.120079 0.0936969,0.229591 0.162323,0.330748l-0.102929 -0.0532402c0.0220157,0.0603307 0.0474882,0.120677 0.0745354,0.181016 -0.0473189,-0.039126 -0.0925945,-0.0827795 -0.134874,-0.146976 0.0058189,0.0938583 5.51181e-005,0.170476 -0.0192008,0.239256 -0.00935433,-0.0804567 -0.0255827,-0.160913 -0.0148386,-0.241354 -0.0473189,0.0615315 -0.089,0.11115 -0.136327,0.152622 0.031437,-0.0620394 0.0581693,-0.128776 0.0745354,-0.205858l-0.0958307 0.0567874c0.0709685,-0.0839843 0.134606,-0.181201 0.167736,-0.312453l0 -0.24761 -0.0566299 0c-0.00992126,0.0237126 -0.033374,0.0404488 -0.0606102,0.0404488 -0.0361732,0 -0.0656772,-0.0295039 -0.0656772,-0.0656732 0,-0.0361732 0.0295039,-0.0656772 0.0656772,-0.0656772 0.0339016,0 0.0619409,0.0259213 0.0653268,0.0589567l0.0519134 0 0 -0.0692598c-0.0294252,-0.00649213 -0.0515669,-0.0327992 -0.0515669,-0.064126 0,-0.0361732 0.0295039,-0.0656772 0.0656772,-0.0656772z"/>
      <path id="_604913488" class="fil1" d="M2.42808 4.79439c0.0361693,0 0.0656732,0.0295039 0.0656732,0.0656772 0,0.0325079 -0.0238504,0.0596142 -0.054937,0.0647756l0 0.0686102 0.0465236 0c0.00338583,-0.0330354 0.0314252,-0.0589567 0.0653346,-0.0589567 0.0361654,0 0.0656693,0.0295039 0.0656693,0.0656772 0,0.0361693 -0.0295039,0.0656732 -0.0656693,0.0656732 -0.0272441,0 -0.0506929,-0.0167362 -0.0606181,-0.0404488l-0.0512402 0 0 0.247063 2.3622e-005 0c0.030752,0.120079 0.0936969,0.229591 0.162327,0.330748l-0.102933 -0.0532402c0.0220157,0.0603346 0.0474882,0.120677 0.0745354,0.181016 -0.047315,-0.039126 -0.0925906,-0.0827756 -0.134874,-0.146976 0.00582283,0.0938583 5.51181e-005,0.17048 -0.0192008,0.23926 -0.00935433,-0.0804606 -0.0255827,-0.160917 -0.0148386,-0.241354 -0.047315,0.0615276 -0.089,0.111146 -0.136327,0.152618 0.031437,-0.0620394 0.0581693,-0.128776 0.0745354,-0.205858l-0.0958307 0.0567874c0.0709724,-0.0839803 0.134606,-0.181201 0.167736,-0.312453l0 -0.24761 -0.0566299 0c-0.00992126,0.0237126 -0.0333701,0.0404488 -0.0606102,0.0404488 -0.0361732,0 -0.0656772,-0.0295039 -0.0656772,-0.0656732 0,-0.0361732 0.0295039,-0.0656772 0.0656772,-0.0656772 0.0339055,0 0.0619449,0.0259213 0.0653268,0.0589567l0.0519134 0 0 -0.0692598c-0.0294252,-0.00648819 -0.0515669,-0.0327992 -0.0515669,-0.064126 0,-0.0361732 0.0295039,-0.0656772 0.0656772,-0.0656772z"/>
      <path id="_604913968" class="fil1" d="M1.54366 3.86619c0.0361693,0 0.0656732,0.0295039 0.0656732,0.0656772 0,0.0325079 -0.0238504,0.0596142 -0.054937,0.0647717l0 0.0686142 0.0465236 0c0.00338583,-0.0330354 0.0314252,-0.0589567 0.0653307,-0.0589567 0.0361693,0 0.0656732,0.0295039 0.0656732,0.0656772 0,0.0361693 -0.0295039,0.0656732 -0.0656732,0.0656732 -0.0272402,0 -0.050689,-0.0167362 -0.0606142,-0.0404488l-0.0512402 0 0 0.247063 2.3622e-005 0c0.030752,0.120079 0.0936969,0.229591 0.162327,0.330748l-0.102933 -0.0532402c0.0220157,0.0603346 0.0474882,0.120677 0.0745354,0.181016 -0.047315,-0.039126 -0.0925906,-0.0827756 -0.134874,-0.146976 0.0058189,0.0938583 5.51181e-005,0.17048 -0.0192008,0.23926 -0.00935433,-0.0804606 -0.0255827,-0.160917 -0.0148386,-0.241354 -0.0473189,0.0615276 -0.089,0.111146 -0.136327,0.152618 0.031437,-0.0620394 0.0581693,-0.128776 0.0745354,-0.205858l-0.0958307 0.0567874c0.0709724,-0.0839803 0.134606,-0.181201 0.167736,-0.312453l0 -0.24761 -0.0566299 0c-0.00992126,0.0237126 -0.033374,0.0404488 -0.0606102,0.0404488 -0.0361732,0 -0.0656772,-0.0295039 -0.0656772,-0.0656732 0,-0.0361732 0.0295039,-0.0656772 0.0656772,-0.0656772 0.0339055,0 0.0619449,0.0259213 0.0653268,0.0589567l0.0519134 0 0 -0.0692598c-0.0294252,-0.00648819 -0.0515669,-0.0327992 -0.0515669,-0.064126 0,-0.0361732 0.0295039,-0.0656772 0.0656772,-0.0656772z"/>
      <path id="_604905136" class="fil1" d="M2.23543 3.37581c0.0361693,0 0.0656732,0.0295039 0.0656732,0.0656772 0,0.0325079 -0.0238504,0.0596142 -0.054937,0.0647717l0 0.0686142 0.0465236 0c0.00338583,-0.0330354 0.0314252,-0.0589567 0.0653346,-0.0589567 0.0361654,0 0.0656693,0.0295039 0.0656693,0.0656772 0,0.0361693 -0.0295039,0.0656732 -0.0656693,0.0656732 -0.0272441,0 -0.0506929,-0.0167362 -0.0606181,-0.0404488l-0.0512402 0 0 0.247063 2.3622e-005 0c0.030752,0.120079 0.0936969,0.229591 0.162327,0.330748l-0.102933 -0.0532402c0.0220157,0.0603346 0.0474882,0.120677 0.0745354,0.181016 -0.047315,-0.039126 -0.0925906,-0.0827795 -0.134874,-0.146976 0.00582283,0.0938583 5.51181e-005,0.17048 -0.0191969,0.23926 -0.00935827,-0.0804606 -0.0255866,-0.160917 -0.0148425,-0.241354 -0.047315,0.0615276 -0.089,0.111146 -0.136327,0.152618 0.031437,-0.0620394 0.0581693,-0.128776 0.0745354,-0.205858l-0.0958307 0.0567874c0.0709724,-0.0839803 0.134606,-0.181201 0.167736,-0.312453l0 -0.24761 -0.0566299 0c-0.00992126,0.0237126 -0.0333701,0.0404488 -0.0606102,0.0404488 -0.0361732,0 -0.0656772,-0.0295039 -0.0656772,-0.0656732 0,-0.0361732 0.0295039,-0.0656772 0.0656772,-0.0656772 0.0339055,0 0.0619449,0.0259213 0.0653268,0.0589567l0.0519134 0 0 -0.0692598c-0.0294252,-0.00649213 -0.0515669,-0.0327992 -0.0515669,-0.064126 0,-0.0361732 0.0295039,-0.0656772 0.0656772,-0.0656772z"/>
      <path id="_604917304" class="fil1" d="M3.02353 2.87669c0.0361693,0 0.0656732,0.0295039 0.0656732,0.0656772 0,0.0325079 -0.0238504,0.0596142 -0.054937,0.0647717l0 0.0686142 0.0465236 0c0.00338583,-0.0330394 0.0314252,-0.0589567 0.0653346,-0.0589567 0.0361693,0 0.0656693,0.0295039 0.0656693,0.0656772 0,0.0361693 -0.0295,0.0656732 -0.0656693,0.0656732 -0.0272441,0 -0.0506929,-0.0167362 -0.0606181,-0.0404488l-0.0512402 0 0 0.247063 2.3622e-005 0c0.030752,0.120079 0.0936969,0.229591 0.162327,0.330748l-0.102929 -0.0532402c0.0220157,0.0603307 0.0474882,0.120677 0.0745354,0.181016 -0.0473189,-0.039126 -0.0925945,-0.0827795 -0.134874,-0.146976 0.0058189,0.0938583 5.11811e-005,0.170476 -0.0192008,0.239256 -0.00935433,-0.0804567 -0.0255866,-0.160913 -0.0148386,-0.241354 -0.0473189,0.0615315 -0.0890039,0.11115 -0.136331,0.152622 0.0314409,-0.0620394 0.0581693,-0.128776 0.0745354,-0.205862l-0.0958307 0.0567913c0.0709724,-0.0839843 0.134606,-0.181201 0.167736,-0.312453l0 -0.24761 -0.056626 0c-0.0099252,0.0237126 -0.033374,0.0404488 -0.0606102,0.0404488 -0.0361772,0 -0.0656772,-0.0295039 -0.0656772,-0.0656732 0,-0.0361732 0.0295,-0.0656772 0.0656772,-0.0656772 0.0339016,0 0.0619409,0.0259173 0.0653268,0.0589567l0.0519094 0 0 -0.0692598c-0.0294252,-0.00649213 -0.0515669,-0.0327992 -0.0515669,-0.064126 0,-0.0361732 0.0295039,-0.0656772 0.0656772,-0.0656772z"/>
      <path id="_604927120" class="fil1" d="M6.00078 3.39333c0.0361693,0 0.0656732,0.0295 0.0656732,0.0656772 0,0.0325079 -0.0238465,0.0596102 -0.054937,0.0647717l0 0.0686142 0.0465276 0c0.00338189,-0.0330394 0.0314213,-0.0589606 0.0653307,-0.0589606 0.0361693,0 0.0656732,0.0295039 0.0656732,0.0656772 0,0.0361693 -0.0295039,0.0656732 -0.0656732,0.0656732 -0.0272441,0 -0.0506929,-0.0167362 -0.0606181,-0.0404488l-0.0512402 0 0 0.247063 2.3622e-005 0c0.0307559,0.120079 0.0936969,0.229594 0.162327,0.330748l-0.102929 -0.0532402c0.0220157,0.0603346 0.0474882,0.120677 0.0745354,0.181016 -0.0473189,-0.039126 -0.0925945,-0.0827756 -0.134874,-0.146976 0.0058189,0.0938583 5.11811e-005,0.17048 -0.0192008,0.23926 -0.00935433,-0.0804567 -0.0255866,-0.160917 -0.0148386,-0.241354 -0.0473189,0.0615315 -0.089,0.111146 -0.136331,0.152622 0.0314409,-0.0620433 0.0581732,-0.12878 0.0745354,-0.205862l-0.0958307 0.0567913c0.0709724,-0.0839843 0.134606,-0.181201 0.167736,-0.312453l0 -0.247614 -0.056626 0c-0.0099252,0.0237126 -0.033374,0.0404488 -0.0606102,0.0404488 -0.0361772,0 -0.0656772,-0.0295039 -0.0656772,-0.0656732 0,-0.0361732 0.0295,-0.0656772 0.0656772,-0.0656772 0.0339016,0 0.0619409,0.0259213 0.0653268,0.0589606l0.0519094 0 0 -0.0692598c-0.0294252,-0.00649213 -0.0515669,-0.0328031 -0.0515669,-0.064126 0,-0.0361772 0.0295039,-0.0656772 0.0656772,-0.0656772z"/>
      <path id="_604909672" class="fil1" d="M5.2302 2.85918c0.0361654,0 0.0656693,0.0295 0.0656693,0.0656772 0,0.0325079 -0.0238465,0.0596142 -0.054937,0.0647717l0 0.0686142 0.0465276 0c0.00338189,-0.0330394 0.0314213,-0.0589606 0.0653307,-0.0589606 0.0361693,0 0.0656732,0.0295039 0.0656732,0.0656772 0,0.0361693 -0.0295039,0.0656732 -0.0656732,0.0656732 -0.0272402,0 -0.0506929,-0.0167362 -0.0606142,-0.0404488l-0.0512441 0 0 0.247063 2.75591e-005 0c0.030752,0.120079 0.0936969,0.229594 0.162323,0.330748l-0.102929 -0.0532402c0.0220157,0.0603346 0.0474882,0.120677 0.0745354,0.181016 -0.0473189,-0.039126 -0.0925945,-0.0827756 -0.134874,-0.146976 0.0058189,0.0938583 5.51181e-005,0.17048 -0.0192008,0.23926 -0.00935433,-0.0804567 -0.0255827,-0.160917 -0.0148386,-0.241354 -0.0473189,0.0615315 -0.089,0.111146 -0.136327,0.152622 0.031437,-0.0620394 0.0581693,-0.12878 0.0745354,-0.205862l-0.0958346 0.0567913c0.0709724,-0.0839843 0.13461,-0.181201 0.16774,-0.312453l0 -0.247614 -0.0566299 0c-0.0099252,0.0237126 -0.033374,0.0404488 -0.0606102,0.0404488 -0.0361732,0 -0.0656772,-0.0295039 -0.0656772,-0.0656732 0,-0.0361732 0.0295039,-0.0656772 0.0656772,-0.0656772 0.0339016,0 0.0619409,0.0259213 0.0653268,0.0589606l0.0519134 0 0 -0.0692598c-0.0294252,-0.00649213 -0.0515669,-0.0328031 -0.0515669,-0.064126 0,-0.0361772 0.0295,-0.0656772 0.0656772,-0.0656772z"/>
      <path id="_604909528" class="fil1" d="M6.85893 2.60523c0.0361693,0 0.0656732,0.0295039 0.0656732,0.0656772 0,0.0325079 -0.0238504,0.0596142 -0.054937,0.0647756l0 0.0686102 0.0465236 0c0.00338583,-0.0330354 0.0314252,-0.0589567 0.0653307,-0.0589567 0.0361693,0 0.0656732,0.0295039 0.0656732,0.0656772 0,0.0361693 -0.0295039,0.0656732 -0.0656732,0.0656732 -0.0272402,0 -0.050689,-0.0167362 -0.0606142,-0.0404488l-0.0512402 0 0 0.247063 2.3622e-005 0c0.030752,0.120079 0.0936969,0.229591 0.162327,0.330748l-0.102933 -0.0532402c0.0220157,0.0603346 0.0474882,0.120677 0.0745354,0.181016 -0.047315,-0.039126 -0.0925906,-0.0827756 -0.134874,-0.146976 0.00582283,0.0938583 5.51181e-005,0.17048 -0.0192008,0.23926 -0.00935433,-0.0804606 -0.0255827,-0.160917 -0.0148386,-0.241354 -0.047315,0.0615276 -0.089,0.111146 -0.136327,0.152622 0.031437,-0.0620433 0.0581693,-0.12878 0.0745354,-0.205862l-0.0958307 0.0567874c0.0709724,-0.0839803 0.134606,-0.181197 0.167736,-0.312449l0 -0.247614 -0.0566299 0c-0.00992126,0.0237126 -0.0333701,0.0404488 -0.0606102,0.0404488 -0.0361732,0 -0.0656772,-0.0295039 -0.0656772,-0.0656732 0,-0.0361732 0.0295039,-0.0656772 0.0656772,-0.0656772 0.0339055,0 0.0619449,0.0259213 0.0653268,0.0589567l0.0519134 0 0 -0.0692598c-0.0294252,-0.00648819 -0.0515669,-0.0327992 -0.0515669,-0.064126 0,-0.0361732 0.0295039,-0.0656772 0.0656772,-0.0656772z"/>
      <path id="_604904512" class="fil1" d="M6.22845 1.95724c0.0361693,0 0.0656732,0.0295039 0.0656732,0.0656772 0,0.0325079 -0.0238504,0.0596142 -0.054937,0.0647717l0 0.0686142 0.0465236 0c0.00338583,-0.0330354 0.0314252,-0.0589567 0.0653346,-0.0589567 0.0361654,0 0.0656693,0.0295039 0.0656693,0.0656772 0,0.0361693 -0.0295039,0.0656732 -0.0656693,0.0656732 -0.0272441,0 -0.0506929,-0.0167362 -0.0606181,-0.0404488l-0.0512402 0 0 0.247063 2.3622e-005 0c0.030752,0.120079 0.0936969,0.229591 0.162327,0.330748l-0.102933 -0.0532402c0.0220157,0.0603346 0.0474882,0.120677 0.0745354,0.181016 -0.047315,-0.039126 -0.0925906,-0.0827795 -0.134874,-0.146976 0.00582283,0.0938583 5.51181e-005,0.17048 -0.0191969,0.239256 -0.00935827,-0.0804567 -0.0255866,-0.160913 -0.0148425,-0.24135 -0.047315,0.0615276 -0.089,0.111146 -0.136327,0.152618 0.031437,-0.0620394 0.0581693,-0.128776 0.0745354,-0.205858l-0.0958307 0.0567874c0.0709724,-0.0839843 0.134606,-0.181201 0.167736,-0.312453l0 -0.24761 -0.0566299 0c-0.00992126,0.0237126 -0.0333701,0.0404488 -0.0606102,0.0404488 -0.0361732,0 -0.0656772,-0.0295039 -0.0656772,-0.0656732 0,-0.0361732 0.0295039,-0.0656772 0.0656772,-0.0656772 0.0339055,0 0.0619449,0.0259213 0.0653268,0.0589567l0.0519134 0 0 -0.0692598c-0.0294252,-0.00649213 -0.0515669,-0.0327992 -0.0515669,-0.064126 0,-0.0361732 0.0295039,-0.0656772 0.0656772,-0.0656772z"/>
      <path id="_604924024" class="fil1" d="M2.03403 1.95724c0.0361693,0 0.0656732,0.0295039 0.0656732,0.0656772 0,0.0325079 -0.0238504,0.0596142 -0.054937,0.0647717l0 0.0686142 0.0465236 0c0.00338583,-0.0330354 0.0314252,-0.0589567 0.0653307,-0.0589567 0.0361693,0 0.0656732,0.0295039 0.0656732,0.0656772 0,0.0361693 -0.0295039,0.0656732 -0.0656732,0.0656732 -0.0272402,0 -0.050689,-0.0167362 -0.0606142,-0.0404488l-0.0512402 0 0 0.247063 2.3622e-005 0c0.030752,0.120079 0.0936969,0.229591 0.162327,0.330748l-0.102933 -0.0532402c0.0220157,0.0603346 0.0474882,0.120677 0.0745354,0.181016 -0.047315,-0.039126 -0.0925906,-0.0827795 -0.134874,-0.146976 0.00582283,0.0938583 5.51181e-005,0.17048 -0.0192008,0.239256 -0.00935433,-0.0804567 -0.0255827,-0.160913 -0.0148386,-0.24135 -0.047315,0.0615276 -0.089,0.111146 -0.136327,0.152618 0.031437,-0.0620394 0.0581693,-0.128776 0.0745354,-0.205858l-0.0958307 0.0567874c0.0709724,-0.0839843 0.134606,-0.181201 0.167736,-0.312453l0 -0.24761 -0.0566299 0c-0.00992126,0.0237126 -0.0333701,0.0404488 -0.0606102,0.0404488 -0.0361732,0 -0.0656772,-0.0295039 -0.0656772,-0.0656732 0,-0.0361732 0.0295039,-0.0656772 0.0656772,-0.0656772 0.0339055,0 0.0619449,0.0259213 0.0653268,0.0589567l0.0519134 0 0 -0.0692598c-0.0294252,-0.00649213 -0.0515669,-0.0327992 -0.0515669,-0.064126 0,-0.0361732 0.0295039,-0.0656772 0.0656772,-0.0656772z"/>
      <path id="_604916344" class="fil1" d="M1.3948 2.57896c0.0361693,0 0.0656732,0.0295039 0.0656732,0.0656772 0,0.0325079 -0.0238504,0.0596142 -0.054937,0.0647717l0 0.0686142 0.0465236 0c0.00338583,-0.0330394 0.0314252,-0.0589567 0.0653307,-0.0589567 0.0361693,0 0.0656732,0.0295039 0.0656732,0.0656772 0,0.0361693 -0.0295039,0.0656693 -0.0656732,0.0656693 -0.0272402,0 -0.050689,-0.0167323 -0.0606142,-0.0404449l-0.0512402 0 0 0.247059 2.3622e-005 0c0.030752,0.120079 0.0936969,0.229594 0.162323,0.330748l-0.102929 -0.0532362c0.0220157,0.0603307 0.0474882,0.120673 0.0745354,0.181012 -0.047315,-0.039122 -0.0925945,-0.0827756 -0.134874,-0.146972 0.0058189,0.0938543 5.51181e-005,0.170476 -0.0192008,0.239256 -0.00935433,-0.0804567 -0.0255827,-0.160913 -0.0148386,-0.241354 -0.0473189,0.0615315 -0.089,0.11115 -0.136327,0.152622 0.031437,-0.0620394 0.0581693,-0.128776 0.0745354,-0.205862l-0.0958307 0.0567913c0.0709724,-0.0839843 0.134606,-0.181201 0.167736,-0.312453l0 -0.24761 -0.0566299 0c-0.00992126,0.0237126 -0.033374,0.0404449 -0.0606102,0.0404449 -0.0361732,0 -0.0656772,-0.0295 -0.0656772,-0.0656693 0,-0.0361732 0.0295039,-0.0656772 0.0656772,-0.0656772 0.0339055,0 0.0619449,0.0259173 0.0653268,0.0589567l0.0519134 0 0 -0.0692598c-0.0294252,-0.00649213 -0.0515669,-0.0327992 -0.0515669,-0.064126 0,-0.0361732 0.0295039,-0.0656772 0.0656772,-0.0656772z"/>
      <path id="_604926376" class="fil1" d="M4.95874 7.07111c0.0361693,0 0.0656732,0.0295039 0.0656732,0.0656772 0,0.0325079 -0.0238504,0.0596142 -0.054937,0.0647717l0 0.0686142 0.0465236 0c0.00338583,-0.0330354 0.0314252,-0.0589567 0.0653307,-0.0589567 0.0361693,0 0.0656732,0.0295039 0.0656732,0.0656772 0,0.0361693 -0.0295039,0.0656732 -0.0656732,0.0656732 -0.0272402,0 -0.050689,-0.0167362 -0.0606142,-0.0404488l-0.0512402 0 0 0.247063 2.3622e-005 0c0.030752,0.120079 0.0936969,0.229591 0.162327,0.330748l-0.102933 -0.0532402c0.0220157,0.0603307 0.0474882,0.120677 0.0745354,0.181016 -0.047315,-0.039126 -0.0925906,-0.0827795 -0.134874,-0.146976 0.00582283,0.0938583 5.51181e-005,0.17048 -0.0192008,0.239256 -0.00935433,-0.0804567 -0.0255827,-0.160913 -0.0148386,-0.24135 -0.047315,0.0615276 -0.089,0.111146 -0.136327,0.152618 0.031437,-0.0620394 0.0581693,-0.128776 0.0745354,-0.205858l-0.0958307 0.0567874c0.0709724,-0.0839843 0.134606,-0.181201 0.167736,-0.312453l0 -0.24761 -0.0566299 0c-0.00992126,0.0237126 -0.0333701,0.0404488 -0.0606102,0.0404488 -0.0361732,0 -0.0656772,-0.0295039 -0.0656772,-0.0656732 0,-0.0361732 0.0295039,-0.0656772 0.0656772,-0.0656772 0.0339055,0 0.0619449,0.0259213 0.0653268,0.0589567l0.0519134 0 0 -0.0692598c-0.0294252,-0.00649213 -0.0515669,-0.0327992 -0.0515669,-0.064126 0,-0.0361732 0.0295039,-0.0656772 0.0656772,-0.0656772z"/>
      <path id="_604922560" class="fil1" d="M4.9675 8.45465c0.0361693,0 0.0656732,0.0295039 0.0656732,0.0656772 0,0.0325079 -0.0238504,0.0596142 -0.054937,0.0647756l0 0.0686142 0.0465236 0c0.00338583,-0.0330394 0.0314252,-0.0589606 0.0653346,-0.0589606 0.0361693,0 0.0656693,0.0295039 0.0656693,0.0656772 0,0.0361693 -0.0295,0.0656732 -0.0656693,0.0656732 -0.0272441,0 -0.0506929,-0.0167362 -0.0606181,-0.0404488l-0.0512402 0 0 0.247063 2.3622e-005 0c0.030752,0.120079 0.0936969,0.229594 0.162327,0.330748l-0.102933 -0.0532402c0.0220157,0.0603346 0.0474882,0.120677 0.0745394,0.181016 -0.0473189,-0.039126 -0.0925945,-0.0827756 -0.134874,-0.146976 0.0058189,0.0938583 5.11811e-005,0.17048 -0.0192008,0.23926 -0.00935433,-0.0804567 -0.0255866,-0.160917 -0.0148386,-0.241354 -0.0473189,0.0615276 -0.0890039,0.111146 -0.136331,0.152622 0.0314409,-0.0620433 0.0581693,-0.12878 0.0745354,-0.205862l-0.0958307 0.0567874c0.0709724,-0.0839803 0.134606,-0.181197 0.167736,-0.312449l0 -0.247614 -0.056626 0c-0.0099252,0.0237126 -0.033374,0.0404488 -0.0606142,0.0404488 -0.0361732,0 -0.0656772,-0.0295039 -0.0656772,-0.0656732 0,-0.0361732 0.0295039,-0.0656772 0.0656772,-0.0656772 0.0339055,0 0.0619449,0.0259213 0.0653268,0.0589606l0.0519134 0 0 -0.0692638c-0.0294252,-0.00648819 -0.0515669,-0.0327992 -0.0515669,-0.064126 0,-0.0361732 0.0295039,-0.0656772 0.0656772,-0.0656772z"/>
      <path id="_604918216" class="fil1" d="M3.26871 7.06235c0.0361693,0 0.0656732,0.0295039 0.0656732,0.0656772 0,0.0325079 -0.0238504,0.0596142 -0.054937,0.0647717l0 0.0686142 0.0465236 0c0.00338583,-0.0330394 0.0314252,-0.0589567 0.0653346,-0.0589567 0.0361693,0 0.0656693,0.0295039 0.0656693,0.0656772 0,0.0361693 -0.0295,0.0656693 -0.0656693,0.0656693 -0.0272441,0 -0.0506929,-0.0167323 -0.0606181,-0.0404449l-0.0512402 0 0 0.247059 2.3622e-005 0c0.030752,0.120083 0.0936969,0.229594 0.162327,0.330748l-0.102929 -0.0532362c0.0220157,0.0603307 0.0474882,0.120677 0.0745354,0.181012 -0.0473189,-0.039122 -0.0925945,-0.0827756 -0.134874,-0.146972 0.0058189,0.0938543 5.11811e-005,0.170476 -0.0192008,0.239256 -0.00935433,-0.0804567 -0.0255866,-0.160913 -0.0148386,-0.241354 -0.0473189,0.0615315 -0.089,0.11115 -0.136331,0.152622 0.0314409,-0.0620394 0.0581693,-0.128776 0.0745354,-0.205862l-0.0958307 0.0567913c0.0709724,-0.0839843 0.134606,-0.181201 0.167736,-0.312453l0 -0.24761 -0.056626 0c-0.0099252,0.0237126 -0.033374,0.0404449 -0.0606102,0.0404449 -0.0361772,0 -0.0656772,-0.0295 -0.0656772,-0.0656693 0,-0.0361732 0.0295,-0.0656772 0.0656772,-0.0656772 0.0339016,0 0.0619409,0.0259173 0.0653268,0.0589567l0.0519094 0 0 -0.0692598c-0.0294252,-0.00649213 -0.0515669,-0.0327992 -0.0515669,-0.064126 0,-0.0361732 0.0295039,-0.0656772 0.0656772,-0.0656772z"/>
      <path id="_604922248" class="fil1" d="M3.26871 8.43714c0.0361693,0 0.0656732,0.0295039 0.0656732,0.0656772 0,0.0325079 -0.0238504,0.0596142 -0.054937,0.0647717l0 0.0686142 0.0465236 0c0.00338583,-0.0330354 0.0314252,-0.0589567 0.0653346,-0.0589567 0.0361693,0 0.0656693,0.0295039 0.0656693,0.0656772 0,0.0361693 -0.0295,0.0656732 -0.0656693,0.0656732 -0.0272441,0 -0.0506929,-0.0167362 -0.0606181,-0.0404488l-0.0512402 0 0 0.247063 2.3622e-005 0c0.030752,0.120079 0.0936969,0.229591 0.162327,0.330748l-0.102929 -0.0532402c0.0220157,0.0603346 0.0474882,0.120677 0.0745354,0.181016 -0.0473189,-0.039126 -0.0925945,-0.0827795 -0.134874,-0.146976 0.0058189,0.0938583 5.11811e-005,0.17048 -0.0192008,0.239256 -0.00935433,-0.0804567 -0.0255866,-0.160913 -0.0148386,-0.24135 -0.0473189,0.0615276 -0.089,0.111146 -0.136331,0.152618 0.0314409,-0.0620394 0.0581693,-0.128776 0.0745354,-0.205858l-0.0958307 0.0567874c0.0709724,-0.0839843 0.134606,-0.181201 0.167736,-0.312453l0 -0.24761 -0.056626 0c-0.0099252,0.0237126 -0.033374,0.0404488 -0.0606102,0.0404488 -0.0361772,0 -0.0656772,-0.0295039 -0.0656772,-0.0656732 0,-0.0361732 0.0295,-0.0656772 0.0656772,-0.0656772 0.0339016,0 0.0619409,0.0259213 0.0653268,0.0589567l0.0519094 0 0 -0.0692598c-0.0294252,-0.00649213 -0.0515669,-0.0327992 -0.0515669,-0.064126 0,-0.0361732 0.0295039,-0.0656772 0.0656772,-0.0656772z"/>
      <path id="_604911856" class="fil1" d="M4.11811 7.84169c0.0361693,0 0.0656693,0.0295039 0.0656693,0.0656772 0,0.0325079 -0.0238465,0.0596142 -0.054937,0.0647717l0 0.0686142 0.0465276 0c0.00338189,-0.0330394 0.0314252,-0.0589567 0.0653307,-0.0589567 0.0361693,0 0.0656732,0.0295039 0.0656732,0.0656772 0,0.0361693 -0.0295039,0.0656693 -0.0656732,0.0656693 -0.0272402,0 -0.0506929,-0.0167323 -0.0606142,-0.0404449l-0.0512441 0 0 0.247059 2.75591e-005 0c0.030752,0.120083 0.0936969,0.229594 0.162323,0.330752l-0.102929 -0.0532402c0.0220157,0.0603307 0.0474882,0.120677 0.0745354,0.181012 -0.0473189,-0.039122 -0.0925945,-0.0827756 -0.134874,-0.146972 0.0058189,0.0938543 5.51181e-005,0.170476 -0.0192008,0.239256 -0.00935433,-0.0804567 -0.0255827,-0.160913 -0.0148386,-0.241354 -0.0473189,0.0615315 -0.089,0.11115 -0.136327,0.152622 0.031437,-0.0620394 0.0581693,-0.128776 0.0745354,-0.205862l-0.0958307 0.0567913c0.0709685,-0.0839843 0.134606,-0.181201 0.167736,-0.312453l0 -0.24761 -0.0566299 0c-0.00992126,0.0237126 -0.033374,0.0404449 -0.0606102,0.0404449 -0.0361732,0 -0.0656772,-0.0295 -0.0656772,-0.0656693 0,-0.0361732 0.0295039,-0.0656772 0.0656772,-0.0656772 0.0339016,0 0.0619409,0.0259173 0.0653268,0.0589567l0.0519134 0 0 -0.0692598c-0.0294252,-0.00649213 -0.0515669,-0.0327992 -0.0515669,-0.064126 0,-0.0361732 0.0295039,-0.0656772 0.0656772,-0.0656772z"/>
     </g>
     <polygon id="_604913920" class="fil2" points="1.84957,2.4048 6.39539,2.4048 4.12248,4.67771 "/>
     <polygon id="_604918744" class="fil2" points="0.669961,3.36758 3.36952,6.08412 3.36952,9.36113 0.771606,9.36113 "/>
     <polygon id="_604906672" class="fil2" points="7.54717,3.3297 4.84761,6.04624 4.84761,9.32325 7.44553,9.32325 "/>
    </g>
   </g>
   <path class="fil3" d="M0.978831 2.41035l6.28732 0 0 3.54099c0,1.69348 -1.41463,3.07909 -3.14366,3.07909l0 0c-1.72903,0 -3.14366,-1.38561 -3.14366,-3.07909l0 -3.54099z"/>
   <path id="_604908400" class="fil4" d="M0.978858 2.36176l6.28725 0 0.0486181 0 0 0.048622 0 3.54093c0,0.860232 -0.359264,1.64224 -0.938063,2.20916 -0.578634,0.566752 -1.37658,0.918535 -2.25418,0.918535 -0.877594,0 -1.67555,-0.351783 -2.25418,-0.918535 -0.578803,-0.566917 -0.938067,-1.34893 -0.938067,-2.20916l0 -3.54093 0 -0.048622 0.048622 0zm6.23863 0.0972441l-6.19001 0 0 3.49231c0,0.833248 0.348063,1.59079 0.908819,2.14003 0.560921,0.549406 1.33479,0.890421 2.18619,0.890421 0.851402,0 1.62526,-0.341016 2.18619,-0.890421 0.560752,-0.549236 0.908815,-1.30678 0.908815,-2.14003l0 -3.49231z"/>
   <path id="_604906072" class="fil5" d="M3.96211 2.77848l0.201063 0.446618 0.397445 -0.286244 -0.286248 0.397433 0.446614 0.201063 -0.487315 -0.0491772 0.0491772 0.487315 -0.201063 -0.446614 -0.397441 0.286244 0.286248 -0.397433 -0.446618 -0.201063 0.487319 0.0491732 -0.0491811 -0.487315zm0.320732 0l-0.0491732 0.487319 0.487311 -0.0491811 -0.446614 0.201063 0.286244 0.397445 -0.397433 -0.286248 -0.201063 0.446614 0.0491732 -0.487319 -0.487315 0.0491811 0.446618 -0.201067 -0.286244 -0.397437 0.397433 0.286244 0.201063 -0.446614z"/>
   <path id="_604912168" class="fil4" d="M3.96992 2.77496l0.152563 0.338874 0.152563 -0.338874 0.0163189 0.00435433 -0.0373268 0.369811 0.301583 -0.217213 0.0119291 0.0119252 -0.217213 0.301591 0.369815 -0.0373189 0.00435433 0.016315 -0.338874 0.152559 0.338874 0.152555 -0.00435433 0.0163189 -0.369811 -0.037315 0.217213 0.301583 -0.0119252 0.0119291 -0.301591 -0.217217 0.0373189 0.369815 -0.016315 0.00435827 -0.152563 -0.338874 -0.152563 0.338874 -0.0163189 -0.00435827 0.0373268 -0.369807 -0.301591 0.217209 -0.0119252 -0.0119291 0.217213 -0.301583 -0.369807 0.0373189 -0.00435827 -0.016315 0.338874 -0.152563 -0.338874 -0.152563 0.00435827 -0.0163189 0.369807 0.0373268 -0.217213 -0.301583 0.0119252 -0.0119291 0.301591 0.217213 -0.0373189 -0.369815 0.016315 -0.00435433zm0.161957 0.359736l0.0348189 0.0773386 0.0688071 -0.049563 0.033563 -0.332496 -0.137189 0.30472zm0.0234921 0.0939213l-0.0328858 -0.0730551 -0.0328898 0.0730551 -0.00429528 0.00954331 -0.00850787 -0.00612992 -0.0650394 -0.0468425 0.00805118 0.0797717 0.00105118 0.0103937 -0.0103976 -0.00104724 -0.0797756 -0.00805118 0.0468465 0.0650394 0.00612992 0.00850787 -0.00954331 0.00429134 -0.0730551 0.0328898 0.0730551 0.0328898 0.00954331 0.00429921 -0.00612992 0.00850394 -0.0468465 0.0650394 0.0797756 -0.00805118 0.0103976 -0.00104331 -0.00105118 0.0103898 -0.00805118 0.0797717 0.0650394 -0.0468425 0.00850787 -0.00612598 0.00429528 0.00953937 0.0328858 0.0730551 0.0328898 -0.0730551 0.00429921 -0.00953937 0.00850394 0.00612598 0.0650394 0.0468425 -0.00805118 -0.0797717 -0.00104331 -0.0103898 0.0103898 0.00104331 0.0797717 0.00805118 -0.0468425 -0.0650394 -0.00612598 -0.00850394 0.00953937 -0.00429921 0.0730591 -0.0328898 -0.0730591 -0.0328898 -0.00953937 -0.00429134 0.00612598 -0.00850787 0.0468425 -0.0650394 -0.0797717 0.00805118 -0.0103898 0.00104724 0.00104331 -0.0103937 0.00805118 -0.0797756 -0.0650394 0.0468465 -0.00850394 0.00612992 -0.00429921 -0.00954331zm-0.0422795 -0.0939213l-0.137189 -0.30472 0.0335591 0.3325 0.0688071 0.0495591 0.0348228 -0.0773386zm0.40989 -0.158213l-0.271232 0.195354 -0.00851969 0.0844016 0.0844016 -0.00851969 0.19535 -0.271236zm-0.185988 0.28748l-0.049563 0.0688071 0.0773425 0.0348189 0.30472 -0.137185 -0.3325 0.0335591zm0.3325 0.259594l-0.30472 -0.137181 -0.0773425 0.0348228 0.049563 0.0688071 0.3325 0.0335512zm-0.341862 -0.017311l-0.0844016 -0.00851575 0.00851969 0.0844016 0.271236 0.19535 -0.195354 -0.271236zm-0.0585669 0.417748l-0.0335591 -0.332504 -0.0688071 -0.0495591 -0.0348228 0.0773425 0.137189 0.30472zm-0.155976 -0.30472l-0.0348189 -0.0773425 -0.0688071 0.0495591 -0.033563 0.332504 0.137189 -0.30472zm-0.391106 0.158209l0.271236 -0.19535 0.00851969 -0.0844016 -0.0844016 0.00851969 -0.195354 0.271232zm0.185996 -0.287476l0.0495591 -0.0688071 -0.0773425 -0.0348228 -0.30472 0.137189 0.332504 -0.0335591zm-0.332504 -0.259606l0.30472 0.137189 0.0773425 -0.0348189 -0.0495669 -0.0688071 -0.332496 -0.033563zm0.341862 0.0173189l0.0844016 0.00851969 -0.00851969 -0.0844016 -0.271236 -0.19535 0.195354 0.271232z"/>
   <polygon id="_604928104" class="fil5" points="3.71934,2.67874 4.12248,3.20693 4.52562,2.67874 4.26976,3.29196 4.92876,3.37699 4.26976,3.46203 4.52562,4.07525 4.12248,3.54706 3.71934,4.07525 3.9752,3.46203 3.3162,3.37699 3.9752,3.29196 "/>
   <path id="_604928824" class="fil4" d="M3.72614 2.67354l0.396339 0.519287 0.396335 -0.51928 0.0147047 0.00847244 -0.251543 0.602906 0.64785 0.0835945 0 0.0169488 -0.647854 0.0835906 0.251547 0.602906 -0.0147047 0.00847244 -0.396335 -0.51928 -0.396331 0.51928 -0.0147087 -0.00847244 0.251543 -0.602906 -0.64785 -0.0835984 0 -0.0169488 0.647854 -0.0835866 -0.251551 -0.602909 0.0147047 -0.00847638zm0.389535 0.538583l-0.362894 -0.475465 0.230327 0.55202 0.00430709 0.0103228 -0.0111378 0.00143307 -0.593323 0.0765551 0.593315 0.076563 0.0111417 0.00143701 -0.00430709 0.0103189 -0.230319 0.552024 0.36289 -0.475469 0.00680315 -0.00890945 0.00680315 0.00890945 0.36289 0.475461 -0.230319 -0.552016 -0.00430315 -0.0103189 0.0111339 -0.00143701 0.593315 -0.0765591 -0.593311 -0.0765591 -0.0111339 -0.00143307 0.00430315 -0.0103228 0.230315 -0.55202 -0.36289 0.475465 -0.00679921 0.00891339 -0.00680709 -0.00891339z"/>
   <polygon id="_604928536" class="fil5" points="4.12248,2.61201 4.27342,3.11555 4.78497,2.9945 4.42436,3.37699 4.78497,3.75948 4.27342,3.63843 4.12248,4.14197 3.97154,3.63843 3.45998,3.75948 3.82059,3.37699 3.45998,2.9945 3.97154,3.11555 "/>
   <path id="_604929352" class="fil4" d="M4.13069 2.60957l0.148618 0.495791 0.503717 -0.119201 0.00817717 0.0142087 -0.355071 0.376626 0.355071 0.376622 -0.00817717 0.0142087 -0.503717 -0.119201 -0.148618 0.495791 -0.0164173 0 -0.148614 -0.495791 -0.503717 0.119201 -0.00817717 -0.0142087 0.355075 -0.376622 -0.355075 -0.376626 0.00817717 -0.0142087 0.503717 0.119201 0.148614 -0.495791 0.0164173 0zm0.134528 0.508433l-0.142736 -0.476165 -0.142732 0.476165 -0.0023189 0.00775197 -0.00783071 -0.00185433 -0.48378 -0.114484 0.341012 0.361717 0.00552756 0.00586614 -0.00552756 0.00585827 -0.341012 0.361713 0.48378 -0.114484 0.00783071 -0.00185039 0.0023189 0.00774803 0.142732 0.476165 0.142736 -0.476165 0.00232283 -0.00774803 0.00783071 0.00185039 0.483776 0.114484 -0.341012 -0.361713 -0.00552362 -0.00585827 0.00552362 -0.00586614 0.341012 -0.361717 -0.483776 0.114484 -0.00783071 0.00185433 -0.00232283 -0.00775197z"/>
   <path id="_604928248" class="fil5" d="M5.82492 6.05252l0.201063 0.446618 0.397445 -0.286248 -0.286248 0.397433 0.44661 0.201063 -0.487315 -0.0491732 0.0491811 0.487315 -0.201063 -0.446614 -0.397445 0.28624 0.286248 -0.397433 -0.446614 -0.201063 0.487319 0.0491772 -0.0491811 -0.487315zm0.320732 0l-0.0491732 0.487315 0.487311 -0.0491811 -0.446614 0.201067 0.286244 0.397441 -0.397433 -0.286248 -0.201063 0.446618 0.0491732 -0.487319 -0.487315 0.0491811 0.446618 -0.201067 -0.286244 -0.397441 0.397433 0.286248 0.201063 -0.446614z"/>
   <path id="_604929184" class="fil4" d="M5.83273 6.049l0.152563 0.33887 0.152563 -0.33887 0.016315 0.00435433 -0.0373228 0.369811 0.301583 -0.217213 0.0119291 0.0119252 -0.217217 0.301591 0.369815 -0.0373228 0.00435827 0.0163189 -0.338874 0.152555 0.338874 0.152559 -0.00435827 0.0163189 -0.369807 -0.0373189 0.217213 0.301587 -0.0119291 0.0119252 -0.301587 -0.217213 0.0373189 0.369815 -0.016315 0.00435827 -0.152563 -0.338874 -0.152563 0.338874 -0.0163189 -0.00435827 0.0373268 -0.369811 -0.301591 0.217209 -0.0119252 -0.0119252 0.217213 -0.301587 -0.369811 0.0373228 -0.00435433 -0.0163189 0.33887 -0.152563 -0.33887 -0.152559 0.00435433 -0.0163189 0.369811 0.0373268 -0.217213 -0.301587 0.0119252 -0.0119252 0.301591 0.217213 -0.0373189 -0.369815 0.016315 -0.00435433zm0.161957 0.359732l0.0348189 0.0773425 0.0688071 -0.049563 0.033563 -0.3325 -0.137189 0.30472zm0.0234921 0.0939213l-0.0328858 -0.0730512 -0.0328937 0.0730512 -0.00429134 0.00954724 -0.00850787 -0.00613386 -0.0650394 -0.0468386 0.00805118 0.0797717 0.00104724 0.0103937 -0.0103937 -0.00105118 -0.0797756 -0.00805118 0.0468465 0.0650394 0.00612992 0.00851181 -0.00954331 0.00429134 -0.0730551 0.0328858 0.0730551 0.0328937 0.00954331 0.00429921 -0.00612992 0.00850394 -0.0468465 0.0650394 0.0797756 -0.00805118 0.0103937 -0.00104724 -0.00104724 0.0103898 -0.00805118 0.0797756 0.0650394 -0.0468425 0.00850787 -0.00612598 0.00429134 0.00953937 0.0328898 0.0730512 0.0328898 -0.0730512 0.00429921 -0.00953937 0.00850394 0.00612598 0.0650394 0.0468425 -0.00805118 -0.0797756 -0.00104331 -0.0103898 0.0103898 0.00104724 0.0797717 0.00805118 -0.0468425 -0.0650394 -0.00612598 -0.00850394 0.00953937 -0.00429921 0.0730591 -0.0328937 -0.0730591 -0.0328858 -0.00953937 -0.00429134 0.00612598 -0.00851181 0.0468425 -0.0650394 -0.0797717 0.00805118 -0.0103898 0.00105118 0.00104331 -0.0103937 0.00805118 -0.0797795 -0.0650394 0.0468465 -0.00850394 0.00613386 -0.00429921 -0.00954724zm-0.0422795 -0.0939213l-0.137189 -0.30472 0.0335591 0.332504 0.0688071 0.0495591 0.0348228 -0.0773425zm0.40989 -0.158209l-0.271232 0.19535 -0.00851969 0.0844016 0.0844016 -0.00851575 0.19535 -0.271236zm-0.185992 0.28748l-0.0495591 0.0688071 0.0773425 0.0348189 0.30472 -0.137185 -0.332504 0.0335591zm0.332504 0.259594l-0.30472 -0.137185 -0.0773425 0.0348228 0.0495591 0.068811 0.332504 0.0335512zm-0.341862 -0.017315l-0.0844016 -0.00851181 0.00851969 0.0844016 0.271236 0.195346 -0.195354 -0.271236zm-0.0585669 0.417752l-0.0335591 -0.332504 -0.0688071 -0.0495591 -0.0348228 0.0773425 0.137189 0.30472zm-0.155976 -0.30472l-0.0348189 -0.0773425 -0.0688071 0.0495591 -0.033563 0.332504 0.137189 -0.30472zm-0.391106 0.158205l0.271236 -0.195346 0.00851575 -0.0844016 -0.0843976 0.00851969 -0.195354 0.271228zm0.185992 -0.287472l0.0495591 -0.068811 -0.0773386 -0.0348228 -0.30472 0.137189 0.3325 -0.0335551zm-0.3325 -0.259606l0.30472 0.137189 0.0773386 -0.0348189 -0.049563 -0.0688071 -0.332496 -0.033563zm0.341862 0.0173189l0.0843976 0.00851575 -0.00851575 -0.0844016 -0.271236 -0.195346 0.195354 0.271232z"/>
   <polygon id="_604928680" class="fil5" points="5.58215,5.95277 5.98529,6.48095 6.38843,5.95277 6.13257,6.56599 6.79157,6.65102 6.13257,6.73606 6.38843,7.34928 5.98529,6.82109 5.58215,7.34928 5.83801,6.73606 5.17901,6.65102 5.83801,6.56598 "/>
   <path id="_604929232" class="fil4" d="M5.58895 5.94757l0.396339 0.519287 0.396331 -0.519283 0.0147087 0.00847638 -0.251543 0.602902 0.647846 0.0835945 0 0.0169488 -0.64785 0.0835945 0.251547 0.602906 -0.0147087 0.00847244 -0.396331 -0.51928 -0.396335 0.51928 -0.0147047 -0.00847244 0.251543 -0.602906 -0.647854 -0.0835984 0 -0.0169488 0.647858 -0.0835906 -0.251555 -0.602906 0.0147087 -0.00847638zm0.389535 0.538583l-0.362894 -0.475469 0.230327 0.552024 0.00430709 0.0103228 -0.0111417 0.00143307 -0.593319 0.0765512 0.593315 0.0765669 0.0111417 0.00143701 -0.00431102 0.0103189 -0.230315 0.55202 0.36289 -0.475469 0.00680315 -0.00890551 0.00680315 0.00890551 0.36289 0.475465 -0.230323 -0.552016 -0.00430315 -0.0103189 0.0111339 -0.00143701 0.593319 -0.0765591 -0.593311 -0.0765591 -0.0111339 -0.00143307 0.00430315 -0.0103228 0.230315 -0.552024 -0.36289 0.475469 -0.00679921 0.00891339 -0.00680709 -0.00891339z"/>
   <polygon id="_604929016" class="fil5" points="5.98529,5.88604 6.13623,6.38958 6.64778,6.26853 6.28717,6.65102 6.64778,7.03351 6.13623,6.91246 5.98529,7.416 5.83435,6.91246 5.3228,7.03351 5.68341,6.65102 5.3228,6.26853 5.83435,6.38958 "/>
   <path id="_604928392" class="fil4" d="M5.99349 5.88359l0.148622 0.495791 0.503717 -0.119197 0.00817717 0.0142087 -0.355075 0.376626 0.355075 0.376622 -0.00817717 0.0142047 -0.503717 -0.119197 -0.148622 0.495791 -0.0164134 0 -0.148614 -0.495791 -0.503717 0.119197 -0.00817717 -0.0142047 0.355071 -0.376622 -0.355071 -0.376626 0.00817717 -0.0142087 0.503717 0.119197 0.148614 -0.495791 0.0164134 0zm0.134531 0.508433l-0.142736 -0.476161 -0.142732 0.476161 -0.0023189 0.00775591 -0.00783465 -0.00185827 -0.483776 -0.11448 0.341012 0.361713 0.00552756 0.00587008 -0.00552756 0.00585827 -0.341012 0.361709 0.483776 -0.11448 0.00783465 -0.00185433 0.0023189 0.00775197 0.142732 0.476161 0.142736 -0.476161 0.00232283 -0.00775197 0.00782677 0.00185433 0.48378 0.11448 -0.341012 -0.361709 -0.00552362 -0.00585827 0.00552362 -0.00587008 0.341012 -0.361713 -0.48378 0.11448 -0.00782677 0.00185827 -0.00232283 -0.00775591z"/>
   <path id="_604930024" class="fil5" d="M2.07107 6.05252l0.201067 0.446618 0.397441 -0.286248 -0.286248 0.397433 0.446614 0.201063 -0.487319 -0.0491732 0.049185 0.487315 -0.201067 -0.446614 -0.397441 0.28624 0.286248 -0.397433 -0.446618 -0.201063 0.487319 0.0491772 -0.0491811 -0.487315zm0.320736 0l-0.0491772 0.487315 0.487315 -0.0491811 -0.446618 0.201067 0.286248 0.397441 -0.397433 -0.286248 -0.201067 0.446618 0.0491732 -0.487319 -0.487315 0.0491811 0.446618 -0.201067 -0.286244 -0.397441 0.397437 0.286248 0.201063 -0.446614z"/>
   <path id="_604928632" class="fil4" d="M2.07888 6.049l0.152563 0.33887 0.152563 -0.33887 0.0163189 0.00435433 -0.0373268 0.369811 0.301587 -0.217213 0.0119252 0.0119252 -0.217213 0.301591 0.369815 -0.0373228 0.00435433 0.0163189 -0.33887 0.152555 0.33887 0.152559 -0.00435433 0.0163189 -0.369811 -0.0373189 0.217213 0.301587 -0.0119252 0.0119252 -0.301591 -0.217213 0.0373228 0.369815 -0.0163189 0.00435827 -0.152563 -0.338874 -0.152563 0.338874 -0.016315 -0.00435827 0.0373268 -0.369811 -0.301591 0.217209 -0.0119291 -0.0119252 0.217217 -0.301587 -0.369811 0.0373228 -0.00435827 -0.0163189 0.338874 -0.152563 -0.338874 -0.152559 0.00435827 -0.0163189 0.369811 0.0373268 -0.217217 -0.301587 0.0119291 -0.0119252 0.301591 0.217213 -0.0373228 -0.369815 0.016315 -0.00435433zm0.161957 0.359732l0.0348189 0.0773425 0.0688071 -0.049563 0.033563 -0.3325 -0.137189 0.30472zm0.0234961 0.0939213l-0.0328898 -0.0730512 -0.0328898 0.0730512 -0.00429528 0.00954724 -0.00850787 -0.00613386 -0.0650394 -0.0468386 0.00805118 0.0797717 0.00105118 0.0103937 -0.0103976 -0.00105118 -0.0797756 -0.00805118 0.0468465 0.0650394 0.00612992 0.00851181 -0.00954331 0.00429134 -0.0730512 0.0328858 0.0730512 0.0328937 0.00954331 0.00429921 -0.00612992 0.00850394 -0.0468465 0.0650394 0.0797756 -0.00805118 0.0103976 -0.00104724 -0.00105118 0.0103898 -0.00805118 0.0797756 0.0650394 -0.0468425 0.00850787 -0.00612598 0.00429528 0.00953937 0.0328858 0.0730512 0.0328937 -0.0730512 0.00429528 -0.00953937 0.00850394 0.00612598 0.0650433 0.0468425 -0.00805512 -0.0797756 -0.00104331 -0.0103898 0.0103898 0.00104724 0.0797717 0.00805118 -0.0468425 -0.0650394 -0.00612598 -0.00850394 0.00953937 -0.00429921 0.0730591 -0.0328937 -0.0730591 -0.0328858 -0.00953937 -0.00429134 0.00612598 -0.00851181 0.0468425 -0.0650394 -0.0797717 0.00805118 -0.0103898 0.00105118 0.00104331 -0.0103937 0.00805512 -0.0797795 -0.0650433 0.0468465 -0.00850394 0.00613386 -0.00429528 -0.00954724zm-0.0422835 -0.0939213l-0.137185 -0.30472 0.0335551 0.332504 0.068811 0.0495591 0.0348189 -0.0773425zm0.40989 -0.158209l-0.271232 0.19535 -0.00851575 0.0844016 0.0843976 -0.00851575 0.19535 -0.271236zm-0.185988 0.28748l-0.0495591 0.0688071 0.0773386 0.0348189 0.304724 -0.137185 -0.332504 0.0335591zm0.332504 0.259594l-0.304724 -0.137185 -0.0773386 0.0348228 0.0495591 0.068811 0.332504 0.0335512zm-0.341866 -0.017315l-0.0843976 -0.00851181 0.00851575 0.0844016 0.271236 0.195346 -0.195354 -0.271236zm-0.0585669 0.417752l-0.0335591 -0.332504 -0.0688071 -0.0495591 -0.0348228 0.0773425 0.137189 0.30472zm-0.155976 -0.30472l-0.034815 -0.0773425 -0.068811 0.0495591 -0.033563 0.332504 0.137189 -0.30472zm-0.391106 0.158205l0.271236 -0.195346 0.00851969 -0.0844016 -0.0844016 0.00851969 -0.195354 0.271228zm0.185996 -0.287472l0.0495591 -0.068811 -0.0773425 -0.0348228 -0.30472 0.137189 0.332504 -0.0335551zm-0.332504 -0.259606l0.30472 0.137189 0.0773425 -0.0348189 -0.049563 -0.0688071 -0.3325 -0.033563zm0.341862 0.0173189l0.0844016 0.00851575 -0.00851969 -0.0844016 -0.271236 -0.195346 0.195354 0.271232z"/>
   <polygon id="_604929928" class="fil5" points="1.82831,5.95277 2.23144,6.48095 2.63458,5.95277 2.37873,6.56599 3.03772,6.65102 2.37872,6.73606 2.63458,7.34928 2.23145,6.82109 1.82831,7.34928 2.08416,6.73606 1.42517,6.65102 2.08417,6.56598 "/>
   <path id="_604930576" class="fil4" d="M1.83511 5.94757l0.396335 0.519287 0.396335 -0.519283 0.0147087 0.00847638 -0.251547 0.602902 0.64785 0.0835945 0 0.0169488 -0.647854 0.0835945 0.251551 0.602906 -0.0147087 0.00847244 -0.396335 -0.51928 -0.396331 0.51928 -0.0147087 -0.00847244 0.251543 -0.602906 -0.64785 -0.0835984 0 -0.0169488 0.647858 -0.0835906 -0.251555 -0.602906 0.0147087 -0.00847638zm0.389535 0.538583l-0.362898 -0.475469 0.230327 0.552024 0.00430709 0.0103228 -0.0111378 0.00143307 -0.593319 0.0765512 0.593315 0.0765669 0.0111378 0.00143701 -0.00430709 0.0103189 -0.230319 0.55202 0.362894 -0.475469 0.00680709 -0.00890551 0.00679528 0.00890551 0.36289 0.475465 -0.230319 -0.552016 -0.00430315 -0.0103189 0.0111339 -0.00143701 0.593315 -0.0765591 -0.593311 -0.0765591 -0.0111339 -0.00143307 0.00430315 -0.0103228 0.230315 -0.552024 -0.36289 0.475469 -0.00679528 0.00891339 -0.00680709 -0.00891339z"/>
   <polygon id="_604930552" class="fil5" points="2.23144,5.88604 2.38238,6.38958 2.89393,6.26853 2.53333,6.65102 2.89393,7.03351 2.38238,6.91246 2.23144,7.416 2.0805,6.91246 1.56895,7.03351 1.92956,6.65102 1.56895,6.26853 2.0805,6.38958 "/>
   <path id="_604931200" class="fil4" d="M2.23965 5.88359l0.148618 0.495791 0.503717 -0.119197 0.00817717 0.0142087 -0.355071 0.376626 0.355071 0.376622 -0.00817717 0.0142047 -0.503717 -0.119197 -0.148618 0.495791 -0.0164173 0 -0.148614 -0.495791 -0.503717 0.119197 -0.00817717 -0.0142047 0.355075 -0.376622 -0.355075 -0.376626 0.00817717 -0.0142087 0.503717 0.119197 0.148614 -0.495791 0.0164173 0zm0.134528 0.508433l-0.142736 -0.476161 -0.142732 0.476161 -0.0023189 0.00775591 -0.00783071 -0.00185827 -0.48378 -0.11448 0.341012 0.361713 0.0055315 0.00587008 -0.0055315 0.00585827 -0.341012 0.361709 0.48378 -0.11448 0.00783071 -0.00185433 0.0023189 0.00775197 0.142732 0.476161 0.142736 -0.476161 0.00232283 -0.00775197 0.00783071 0.00185433 0.483776 0.11448 -0.341012 -0.361709 -0.00552362 -0.00585827 0.00552362 -0.00587008 0.341012 -0.361713 -0.483776 0.11448 -0.00783071 0.00185827 -0.00232283 -0.00775591z"/>
   <polygon id="_604930792" class="fil6" points="4.87541,4.88347 4.88275,4.83579 4.72867,4.64503 3.4007,4.64503 3.4007,6.20045 4.87541,6.20045 "/>
   <path id="_604931776" class="fil4" d="M4.89 4.88453l0.00716535 -0.0465787 0.000964567 -0.00627165 -0.00404331 -0.00500787 -0.154075 -0.19076 -0.00441732 -0.00547244 -0.00692126 0 -1.32797 0 -0.0145866 0 0 0.0145866 0 1.55542 0 0.0145866 0.0145866 0 1.47471 0 0.0145866 0 0 -0.0145866 0 -1.31592zm-0.0226339 -0.0446339l-0.00637008 0.0414094 -0.000169291 0.00216142 0 1.30239 -1.44554 0 0 -1.52625 1.30647 0 0.14561 0.180283z"/>
   <path id="_604931464" class="fil5" d="M3.66154 4.98798c-0.0217717,-0.120709 -0.0822638,-0.193028 -0.181476,-0.275039l0 1.49537c0.105268,0.0160512 0.160913,0.106524 0.188736,0.238744l-0.00725984 -1.45908z"/>
   <path id="_604931368" class="fil4" d="M3.67346 4.9858c-0.0112283,-0.0622283 -0.0324567,-0.112 -0.0636535,-0.15678 -0.0309646,-0.0444488 -0.0716024,-0.0837717 -0.121972,-0.125461l-0.0198976 -0.0164606 0 0.025815 0 1.49535 0 0.0104331 0.0103504 0.00158268c0.0492047,0.00751181 0.0868543,0.0324646 0.115476,0.0710197 0.0294252,0.0396339 0.0496299,0.0937323 0.0632126,0.158197l0.0240236 -0.00251969 -0.00729921 -1.45909 -0.000240157 -0.00208661zm-0.0835984 -0.142913c0.0290787,0.0417441 0.0489291,0.0881024 0.0595315,0.145921l0.00685039 1.36967c-0.0116732,-0.0310551 -0.0258504,-0.0584803 -0.0430118,-0.0816024 -0.0304409,-0.0410039 -0.0699724,-0.0684528 -0.120984,-0.0787795l0 -1.459c0.0396535,0.0342441 0.0722244,0.0673583 0.0976142,0.103799z"/>
   <rect id="_604907296" class="fil6" x="3.70912" y="6.07486" width="0.980592" height="0.310176"/>
   <path id="_604931272" class="fil5" d="M4.80122 5.00976l-1.12516 0c-0.0352559,-0.140346 -0.0995472,-0.241969 -0.192886,-0.304882l1.13242 -0.00725984c0.187705,0.0556535 0.249571,0.159705 0.185622,0.312142z"/>
   <path id="_604932064" class="fil4" d="M4.79304 4.9976l-1.1076 0c-0.0177717,-0.0675 -0.0423622,-0.126106 -0.0737756,-0.175776 -0.0260433,-0.0411772 -0.0567598,-0.0761811 -0.0920945,-0.10502l1.09433 -0.007c0.020185,0.00604331 0.0389961,0.0127126 0.0563937,0.0200118 0.061122,0.0256417 0.102646,0.0583622 0.124547,0.0981417 0.0216614,0.0393346 0.0244016,0.0862992 0.00823228,0.140882 -0.00274409,0.00924409 -0.00610236,0.0188504 -0.0100315,0.0287598zm-1.117 0.024311l1.12517 0 0.00807874 0 0.00312992 -0.00745276c0.00549606,-0.0130945 0.0101378,-0.0260276 0.0139134,-0.0387835 0.0180827,-0.0610354 0.0146811,-0.114181 -0.0102244,-0.159398 -0.0246535,-0.0447638 -0.0701299,-0.081063 -0.136417,-0.108874 -0.0184134,-0.00772835 -0.0386693,-0.0148661 -0.0607205,-0.0214016l-0.00346457 -0.000519685 -1.13235 0.00724409 -0.00674016 0.0222205c0.0452835,0.0305315 0.0835315,0.0704685 0.114728,0.119791 0.0314291,0.049689 0.0557992,0.109008 0.0731142,0.177957l0.00231102 0.00921654 0.00946457 0z"/>
   <path id="_604932352" class="fil6" d="M4.87775 4.96188l-0.351598 0c-0.0136535,0 -0.0248189,0.0111693 -0.0248189,0.0248189l0 0.136441c0,0.0136535 0.0111654,0.0248228 0.0248189,0.0248228l0.351598 0c0.0136496,0 0.0248189,-0.0111693 0.0248189,-0.0248228l0 -0.136441c0,-0.0136496 -0.0111693,-0.0248189 -0.0248189,-0.0248189zm0 0.45172l-0.351598 0c-0.0136535,0 -0.0248189,0.0111693 -0.0248189,0.0248228l0 0.136437c0,0.0136535 0.0111654,0.0248228 0.0248189,0.0248228l0.351598 0c0.0136496,0 0.0248189,-0.0111693 0.0248189,-0.0248228l0 -0.136437c0,-0.0136535 -0.0111693,-0.0248228 -0.0248189,-0.0248228zm0 0.434087l-0.351598 0c-0.0136535,0 -0.0248189,0.0111693 -0.0248189,0.0248228l0 0.136437c0,0.0136535 0.0111654,0.0248228 0.0248189,0.0248228l0.351598 0c0.0136496,0 0.0248189,-0.0111693 0.0248189,-0.0248228l0 -0.136437c0,-0.0136535 -0.0111693,-0.0248228 -0.0248189,-0.0248228zm0 0.420524l-0.351598 0c-0.0136535,0 -0.0248189,0.0111654 -0.0248189,0.0248189l0 0.136441c0,0.0136535 0.0111654,0.0248189 0.0248189,0.0248189l0.351598 0c0.0136496,0 0.0248189,-0.0111654 0.0248189,-0.0248189l0 -0.136441c0,-0.0136535 -0.0111693,-0.0248189 -0.0248189,-0.0248189zm-0.00555512 -0.237654l-0.340484 0 0 0.23739 0.340484 0 0 -0.23739zm0 -0.420524l-0.340484 0 0 0.23739 0.340484 0 0 -0.23739zm0 -0.458504l-0.340484 0 0 0.261807 0.340484 0 0 -0.261807zm-0.363465 -0.149583l-0.836531 0 0 1.43071 0.836567 0m-0.677181 -0.230366c-0.0426772,0 -0.0774843,0.0348071 -0.0774843,0.0774843 0,0.0426732 0.0348071,0.0774803 0.0774843,0.0774803 0.0426732,0 0.0774803,-0.0348071 0.0774803,-0.0774803 0,-0.0426772 -0.0348071,-0.0774843 -0.0774803,-0.0774843zm0.554555 0c-0.0426772,0 -0.0774843,0.0348071 -0.0774843,0.0774843 0,0.0426732 0.0348071,0.0774803 0.0774843,0.0774803 0.0426732,0 0.0774803,-0.0348071 0.0774803,-0.0774803 0,-0.0426772 -0.0348071,-0.0774843 -0.0774803,-0.0774843zm0.0015748 -0.991819l0 0.989378m-0.0015748 -1.14558c-0.0426772,0 -0.0774843,0.0348071 -0.0774843,0.0774803 0,0.0426732 0.0348071,0.0774843 0.0774843,0.0774843 0.0426732,0 0.0774803,-0.034811 0.0774803,-0.0774843 0,-0.0426732 -0.0348071,-0.0774803 -0.0774803,-0.0774803zm-0.554555 0c-0.0426772,0 -0.0774843,0.0348071 -0.0774843,0.0774803 0,0.0426732 0.0348071,0.0774843 0.0774843,0.0774843 0.0426732,0 0.0774803,-0.034811 0.0774803,-0.0774843 0,-0.0426732 -0.0348071,-0.0774803 -0.0774803,-0.0774803zm0.0015748 0.156205l0 0.989378m0.512394 -0.995866l-0.47672 1.00533m-0.00324409 -1.01182l0.486453 1.01182"/>
   <path id="_604932448" class="fil4" d="M4.87775 4.94972l-0.351598 0c-0.0101811,0 -0.0194331,0.00415748 -0.026122,0.0108504 -0.00669685,0.00669291 -0.0108543,0.0159449 -0.0108543,0.026126l0 0.00309449 -0.816976 0 -0.0121535 0 0 0.0121535 0 1.43071 0 0.0121535 0.0121535 0 0.820327 0c0.00185433,0.00401181 0.00441339,0.00763386 0.00750394,0.0107323 1.1811e-005,1.5748e-005 3.14961e-005,3.54331e-005 4.72441e-005,4.72441e-005 0.0067126,0.00669685 0.0159488,0.0108543 0.0260748,0.0108543l0.351598 0c0.0101811,0 0.0194331,-0.00415748 0.026126,-0.0108543 0.00669291,-0.00668898 0.0108504,-0.0159409 0.0108504,-0.026122l0 -0.136441c0,-0.0101457 -0.00415748,-0.019378 -0.0108504,-0.0260787l-4.72441e-005 -5.11811e-005c-0.00520866,-0.00520079 -0.0119646,-0.0088622 -0.0194764,-0.0102362l0 -0.211319c0.00753937,-0.00137008 0.014311,-0.00505906 0.0195236,-0.0102717 0.00669291,-0.00668898 0.0108504,-0.0159449 0.0108504,-0.026126l0 -0.136437c0,-0.0101496 -0.00415748,-0.0193819 -0.0108504,-0.0260827l-4.72441e-005 -4.72441e-005c-0.00520866,-0.00520079 -0.0119646,-0.0088622 -0.0194764,-0.0102402l0 -0.224882c0.00753937,-0.00137008 0.014311,-0.00505906 0.0195236,-0.0102717 0.00669291,-0.00669291 0.0108504,-0.0159449 0.0108504,-0.026126l0 -0.136437c0,-0.0101496 -0.00415748,-0.0193819 -0.0108504,-0.0260827l-4.72441e-005 -4.72441e-005c-0.00520866,-0.00520472 -0.0119646,-0.0088622 -0.0194764,-0.0102402l0 -0.242516c0.00753937,-0.00137008 0.014311,-0.00506299 0.0195236,-0.0102756 0.00669291,-0.00668898 0.0108504,-0.0159409 0.0108504,-0.026122l0 -0.136441c0,-0.0101457 -0.00415748,-0.019378 -0.0108504,-0.0260787l-4.72441e-005 -4.72441e-005c-0.00670079,-0.00669291 -0.0159331,-0.0108504 -0.0260787,-0.0108504zm-0.351598 0.024311l0.351598 0c0.00348425,0 0.00666142,0.0014252 0.00896063,0.00370472 0.00227953,0.00229921 0.00370472,0.00547638 0.00370472,0.00896063l0 0.136441c0,0.0034685 -0.00142913,0.00663386 -0.00372835,0.00893307 -0.00230315,0.00229921 -0.00547244,0.00373228 -0.00893701,0.00373228l-0.351598 0c-0.00349606,0 -0.00666142,-0.00141339 -0.00893307,-0.00368504l-4.72441e-005 -4.72441e-005c-0.00227165,-0.00227165 -0.00368504,-0.00543701 -0.00368504,-0.00893307l0 -0.136441c0,-0.00346457 0.00143307,-0.00663386 0.00373228,-0.00893701 0.00230315,-0.00229921 0.0054685,-0.00372835 0.00893307,-0.00372835zm-0.0369764 0.0400709l0 0.109035c0,0.010126 0.00415748,0.0193622 0.0108543,0.0260748 1.1811e-005,1.5748e-005 3.14961e-005,3.54331e-005 4.72441e-005,4.72441e-005 0.00522835,0.0052126 0.0119646,0.00889764 0.0194764,0.0102717l0 0.242512c-0.00755512,0.00137008 -0.014315,0.00503543 -0.0195236,0.010248 -0.00669685,0.00669291 -0.0108543,0.0159488 -0.0108543,0.0261299l0 0.136437c0,0.0101299 0.00415748,0.0193622 0.0108543,0.0260748 1.1811e-005,1.5748e-005 3.14961e-005,3.54331e-005 4.72441e-005,5.11811e-005 0.00522835,0.0052126 0.0119646,0.00889764 0.0194764,0.0102677l0 0.224878c-0.00755512,0.00137008 -0.014315,0.00503543 -0.0195236,0.010248 -0.00669685,0.00669291 -0.0108543,0.0159488 -0.0108543,0.0261299l0 0.136437c0,0.0101299 0.00415748,0.0193622 0.0108543,0.0260787 1.1811e-005,1.1811e-005 3.14961e-005,3.14961e-005 4.72441e-005,4.72441e-005 0.00522835,0.0052126 0.0119646,0.00889764 0.0194764,0.0102677l0 0.211311c-0.00755512,0.00137008 -0.014315,0.00503937 -0.0195236,0.010248 -0.00669685,0.00669685 -0.0108543,0.0159488 -0.0108543,0.0261299l0 0.127476 -0.804819 0 0 -1.4064 0.804819 0zm0.0369764 0.41165l0.351598 0c0.00348425,0 0.00666142,0.0014252 0.00896063,0.00370866 0.00227953,0.00229921 0.00370472,0.00547244 0.00370472,0.00896063l0 0.136437c0,0.0034685 -0.00142913,0.00663386 -0.00372835,0.00893307 -0.00230315,0.00229921 -0.00547244,0.00373228 -0.00893701,0.00373228l-0.351598 0c-0.00349606,0 -0.00666142,-0.00141339 -0.00893307,-0.00368504l-4.72441e-005 -4.72441e-005c-0.00227165,-0.00227165 -0.00368504,-0.00543701 -0.00368504,-0.00893307l0 -0.136437c0,-0.0034685 0.00143307,-0.0066378 0.00373228,-0.00893701 0.00230315,-0.00229921 0.0054685,-0.00373228 0.00893307,-0.00373228zm0 0.434091l0.351598 0c0.00348425,0 0.00666142,0.00142126 0.00896063,0.00370472 0.00227953,0.00229921 0.00370472,0.00547244 0.00370472,0.00896063l0 0.136437c0,0.0034685 -0.00142913,0.00663386 -0.00372835,0.00893307 -0.000700787,0.000700787 -0.00149606,0.00133858 -0.00233465,0.00185827l0 -0.00133858 -0.0121575 0 -0.340484 0 -0.0121575 0 0 0.00138976c-0.000854331,-0.000523622 -0.00162598,-0.00115748 -0.00233465,-0.0018622l-4.72441e-005 -4.72441e-005c-0.00227165,-0.00227165 -0.00368504,-0.00543701 -0.00368504,-0.00893307l0 -0.136437c0,-0.0034685 0.00143307,-0.0066378 0.00373228,-0.00893701 0.00230315,-0.00229921 0.0054685,-0.00372835 0.00893307,-0.00372835zm0.0177126 0.186079l0.316177 0 0 0.20987 -0.316177 0 0 -0.20987zm-0.0177126 0.234441l0.351598 0c0.00348425,0 0.00666142,0.0014252 0.00896063,0.00370472 0.00227953,0.00229921 0.00370472,0.00547638 0.00370472,0.00896063l0 0.136441c0,0.00346457 -0.00142913,0.00662992 -0.00372835,0.00892913 -0.00230315,0.00230315 -0.00547244,0.00373622 -0.00893701,0.00373622l-0.351598 0c-0.00349606,0 -0.00666142,-0.00141339 -0.00893307,-0.00368504l-4.72441e-005 -5.11811e-005c-0.00227165,-0.00226772 -0.00368504,-0.00543307 -0.00368504,-0.00892913l0 -0.136441c0,-0.00346457 0.00143307,-0.0066378 0.00373228,-0.00893701 0.00230315,-0.00229921 0.0054685,-0.00372835 0.00893307,-0.00372835zm0.0177126 -0.658177l0.316177 0 0 0.213083 -0.316177 0 0 -0.213083zm0 -0.458504l0.316177 0 0 0.2375 -0.316177 0 0 -0.2375zm-0.722862 1.02709c-0.0204803,0.00242126 -0.038874,0.0117874 -0.0527559,0.0256693l2.3622e-005 2.3622e-005c-0.0162441,0.016252 -0.0263228,0.0386614 -0.0263228,0.063315 0,0.024689 0.0100669,0.0471063 0.0262992,0.0633386 0.0162283,0.0162283 0.0386496,0.0262992 0.0633386,0.0262992 0.0246496,0 0.0470591,-0.0100827 0.063315,-0.0263268l2.3622e-005 2.75591e-005c0.0162283,-0.0162323 0.0262992,-0.0386496 0.0262992,-0.0633386 0,-0.0246417 -0.0100709,-0.0470433 -0.0262992,-0.0632913 -1.5748e-005,-1.5748e-005 -3.54331e-005,-3.54331e-005 -5.11811e-005,-4.72441e-005 -0.00352362,-0.00351969 -0.00735039,-0.00674016 -0.0114213,-0.00964173l0.225382 -0.475303 0.227728 0.473665c-0.00495669,0.00330315 -0.00956693,0.00708268 -0.0137598,0.0112795l2.3622e-005 2.3622e-005c-0.0162441,0.016252 -0.0263228,0.0386614 -0.0263228,0.063315 0,0.024689 0.0100669,0.0471063 0.0262992,0.0633386 0.0162283,0.0162283 0.0386457,0.0262992 0.0633386,0.0262992 0.0246496,0 0.0470591,-0.0100827 0.063311,-0.0263268l2.75591e-005 2.75591e-005c0.0162283,-0.0162323 0.0262992,-0.0386496 0.0262992,-0.0633386 0,-0.0246417 -0.0100709,-0.0470433 -0.0262992,-0.0632913 -1.5748e-005,-1.5748e-005 -3.54331e-005,-3.54331e-005 -5.11811e-005,-4.72441e-005 -0.0131693,-0.0131535 -0.0303937,-0.022252 -0.0495591,-0.0252323l0 -0.97087c0.0191811,-0.00298031 0.0364134,-0.0121063 0.0495827,-0.0252717l2.75591e-005 2.3622e-005c0.0162283,-0.0162283 0.0262992,-0.0386496 0.0262992,-0.0633386 0,-0.0246417 -0.0100709,-0.0470394 -0.0262992,-0.0632874 -1.5748e-005,-1.5748e-005 -3.54331e-005,-3.54331e-005 -5.11811e-005,-5.11811e-005 -0.016248,-0.0162283 -0.0386496,-0.0262992 -0.0632874,-0.0262992 -0.0246929,0 -0.0471102,0.0100709 -0.0633386,0.0262992l2.3622e-005 2.3622e-005c-0.0162441,0.0162559 -0.0263228,0.0386654 -0.0263228,0.063315 0,0.024689 0.0100669,0.0471102 0.0262992,0.0633386 0.003,0.003 0.00619685,0.00579528 0.00959055,0.00835039l-0.223685 0.471713 -0.225925 -0.469929c0.00432677,-0.0030315 0.0083937,-0.00643307 0.0121181,-0.0101575l2.3622e-005 2.3622e-005c0.0162283,-0.0162283 0.0262992,-0.0386496 0.0262992,-0.0633386 0,-0.0246417 -0.0100709,-0.0470394 -0.0262992,-0.0632874 -1.5748e-005,-1.5748e-005 -3.54331e-005,-3.54331e-005 -5.11811e-005,-5.11811e-005 -0.016248,-0.0162283 -0.0386457,-0.0262992 -0.0632874,-0.0262992 -0.024689,0 -0.0471102,0.0100709 -0.0633386,0.0262992l2.3622e-005 2.3622e-005c-0.0162441,0.0162559 -0.0263228,0.0386654 -0.0263228,0.063315 0,0.024689 0.0100669,0.0471102 0.0262992,0.0633386 0.0138819,0.0138819 0.0322756,0.0232717 0.0527559,0.0256929l0 0.969988zm-0.035563 0.0428622c0.0118346,-0.0118346 0.0281693,-0.0191811 0.0461457,-0.0191811 0.0180079,0 0.0343465,0.00732677 0.0461457,0.0191299l4.72441e-005 5.11811e-005c0.0118071,0.0117992 0.0191339,0.0281339 0.0191339,0.0461457 0,0.0179724 -0.00734646,0.034311 -0.0191811,0.0461457l0 4.72441e-005c-0.0117992,0.0118071 -0.0281378,0.0191339 -0.0461457,0.0191339 -0.0179764,0 -0.034311,-0.00734646 -0.0461457,-0.0191811 -0.0118346,-0.0118346 -0.0191811,-0.0281732 -0.0191811,-0.0461457 0,-0.0180118 0.00732677,-0.0343465 0.0191299,-0.0461457l5.11811e-005 0zm0.0765315 -0.0381496c-0.00534252,-0.00193701 -0.0109094,-0.00337795 -0.0166575,-0.00427559l0 -0.97087c0.00546457,-0.000850394 0.0107677,-0.00219291 0.0158622,-0.00398425l0.234146 0.487028 -0.23335 0.492102zm0.513587 -0.0047126c-0.00590551,0.00069685 -0.0116417,0.00197638 -0.0171417,0.00377559l-0.236189 -0.49128 0.23139 -0.48798c0.00693701,0.0027126 0.0142992,0.00459055 0.0219409,0.00549606l0 0.969988zm-0.035563 0.0428622c0.0118307,-0.0118346 0.0281693,-0.0191811 0.0461457,-0.0191811 0.0180079,0 0.0343425,0.00732677 0.0461457,0.0191299l4.72441e-005 5.11811e-005c0.0118071,0.0117992 0.0191339,0.0281339 0.0191339,0.0461457 0,0.0179724 -0.00734646,0.034311 -0.0191811,0.0461457l0 4.72441e-005c-0.0118031,0.0118071 -0.0281378,0.0191339 -0.0461457,0.0191339 -0.0179764,0 -0.034315,-0.00734646 -0.0461457,-0.0191811 -0.0118346,-0.0118346 -0.0191811,-0.0281732 -0.0191811,-0.0461457 0,-0.0180118 0.00732677,-0.0343465 0.0191299,-0.0461457l5.11811e-005 0zm0 -1.14803c0.0118307,-0.0118346 0.0281693,-0.0191811 0.0461457,-0.0191811 0.0180079,0 0.0343425,0.00732677 0.0461457,0.0191339l4.72441e-005 4.72441e-005c0.0118071,0.0117992 0.0191339,0.0281378 0.0191339,0.0461457 0,0.0179764 -0.00734646,0.034311 -0.0191811,0.0461457l0 5.11811e-005c-0.0118031,0.0118031 -0.0281378,0.0191299 -0.0461457,0.0191299 -0.0179764,0 -0.034315,-0.00734646 -0.0461457,-0.0191811 -0.0118346,-0.0118346 -0.0191811,-0.0281693 -0.0191811,-0.0461457 0,-0.0180079 0.00732677,-0.0343465 0.0191299,-0.0461457l5.11811e-005 0zm-0.554555 0c0.0118346,-0.0118346 0.0281693,-0.0191811 0.0461457,-0.0191811 0.0180079,0 0.0343465,0.00732677 0.0461457,0.0191339l4.72441e-005 4.72441e-005c0.0118071,0.0117992 0.0191339,0.0281378 0.0191339,0.0461457 0,0.0179764 -0.00734646,0.034311 -0.0191811,0.0461457l0 5.11811e-005c-0.0117992,0.0118031 -0.0281378,0.0191299 -0.0461457,0.0191299 -0.0179764,0 -0.034311,-0.00734646 -0.0461457,-0.0191811 -0.0118346,-0.0118346 -0.0191811,-0.0281693 -0.0191811,-0.0461457 0,-0.0180079 0.00732677,-0.0343465 0.0191299,-0.0461457l5.11811e-005 0z"/>
   <line id="_604932520" class="fil3" x1="3.63975" y1="6.35269" x2="3.63975" y2= "4.92981" />
   <polygon id="_604932616" class="fil4" points="3.64833,6.35269 3.64833,4.92981 3.63118,4.92981 3.63118,6.35269 "/>
   <line id="_604932760" class="fil3" x1="3.61072" y1="6.28736" x2="3.61072" y2= "4.87908" />
   <polygon id="_604932856" class="fil4" points="3.6193,6.28736 3.6193,4.87908 3.60214,4.87908 3.60214,6.28736 "/>
   <line id="_604932928" class="fil3" x1="3.57442" y1="6.27284" x2="3.58168" y2= "4.82827" />
   <polygon id="_604933216" class="fil4" points="3.583,6.27287 3.59026,4.8283 3.5731,4.82824 3.56585,6.27281 "/>
   <line id="_604933312" class="fil3" x1="3.55265" y1="6.22202" x2="3.55265" y2= "4.79198" />
   <polygon id="_604933384" class="fil4" points="3.56122,6.22203 3.56122,4.79198 3.54407,4.79198 3.54407,6.22203 "/>
   <line id="_604933480" class="fil3" x1="3.52361" y1="6.22928" x2="3.52361" y2= "4.74842" />
   <polygon id="_604933624" class="fil4" points="3.53219,6.22928 3.53219,4.74842 3.51503,4.74842 3.51503,6.22928 "/>
   <polygon id="_604933720" class="fil5" points="3.73867,5.19271 3.6722,5.19271 3.6722,5.3688 3.73867,5.3688 "/>
   <path id="_604933792" class="fil4" d="M3.73863 5.18051l-0.0664528 0 -0.0121535 0 0 0.0121575 0 0.176205 0 0.0121575 0.0121535 0 0.0664528 0 0.0121535 0 0 -0.0121575 0 -0.176205 0 -0.0121575 -0.0121535 0zm-0.0542953 0.024311l0.0421378 0 0 0.151898 -0.0421378 0 0 -0.151898z"/>
   <polygon id="_604934080" class="fil5" points="3.73867,6.02656 3.6722,6.02656 3.6722,6.20264 3.73867,6.20264 "/>
   <path id="_604934176" class="fil4" d="M3.73863 6.01441l-0.0664528 0 -0.0121535 0 0 0.0121575 0 0.176031 0 0.0121535 0.0121535 0 0.0664528 0 0.0121535 0 0 -0.0121535 0 -0.176031 0 -0.0121575 -0.0121535 0zm-0.0542953 0.024311l0.0421378 0 0 0.15172 -0.0421378 0 0 -0.15172z"/>
   <polygon id="_604934248" class="fil5" points="3.67893,5.19291 3.35945,4.8838 3.35945,5.06202 3.67893,5.37113 "/>
   <path id="_604934344" class="fil4" d="M3.68742 5.18412l-0.319567 -0.30902 -0.020563 -0.0198819 0 0.0286181 0 0.178209 0 0.00511811 0.00374803 0.00362205 0.319567 0.309004 0.020563 0.0198858 0 -0.028622 0 -0.178197 0 -0.00511024 -0.00374803 -0.00362598zm-0.315819 -0.271665l0.295256 0.285512 0 0.144469 -0.295256 -0.285496 0 -0.144484z"/>
   <path id="_604934488" class="fil5" d="M3.50615 5.08207c-0.0125709,0 -0.0228189,0.0161102 -0.0228189,0.0358622 0,0.019752 0.010248,0.0358583 0.0228189,0.0358583 0.0125709,0 0.0228228,-0.0161063 0.0228228,-0.0358583 0,-0.019752 -0.010252,-0.0358622 -0.0228228,-0.0358622z"/>
   <path id="_604934584" class="fil4" d="M3.50612 5.07c-0.0107244,0 -0.0199961,0.00617323 -0.0263189,0.0161024l0 4.72441e-005c-0.00529528,0.00833071 -0.00858268,0.0195984 -0.00858268,0.0317638 0,0.0122205 0.0032874,0.0235079 0.0085748,0.0318622 0.00633858,0.0100315 0.0156299,0.0162441 0.0263268,0.0162441 0.0107874,0 0.0200984,-0.00616535 0.026437,-0.016122 0.00531102,-0.00835433 0.00859843,-0.019689 0.00859843,-0.0319843 0,-0.0121772 -0.00331102,-0.0234764 -0.00865748,-0.0318346 -0.00634646,-0.00990945 -0.0156339,-0.0160787 -0.026378,-0.0160787zm-0.00583465 0.0291969l2.3622e-005 1.1811e-005c0.00192126,-0.00301181 0.00401575,-0.00490157 0.00581102,-0.00490157 0.00188583,0 0.00403543,0.00187402 0.00595669,0.00487795 0.00294488,0.0046063 0.00476772,0.0112323 0.00476772,0.0187283 0,0.00754724 -0.00183465,0.0142165 -0.00479921,0.018874 -0.00192913,0.00303937 -0.00406693,0.00492126 -0.0059252,0.00492126 -0.00182677,0 -0.00393307,-0.00185827 -0.0058189,-0.00484646 -0.00294094,-0.00464961 -0.00477165,-0.0113386 -0.00477165,-0.0189488 0,-0.00746063 0.0018189,-0.0140827 0.00475591,-0.0187165z"/>
   <polygon id="_604934656" class="fil5" points="3.66979,6.01652 3.35031,5.70741 3.35031,5.88562 3.66979,6.19474 "/>
   <path id="_604934944" class="fil4" d="M3.67815 6.00785l-0.31937 -0.309173 -0.0206063 -0.0199449 0 0.0286339 0 0.17815 0 0.0051063 0.00370472 0.00358268 0.31937 0.309252 0.0206063 0.0199567 0 -0.0286417 0 -0.178232 0 -0.00509843 -0.00370472 -0.00359055zm-0.315665 -0.271846l0.295059 0.285638 0 0.144484 -0.295059 -0.285709 0 -0.144413z"/>
   <path id="_604935040" class="fil5" d="M3.49701 5.90568c-0.0125709,0 -0.0228189,0.0161063 -0.0228189,0.0358622 0,0.019748 0.010248,0.0358583 0.0228189,0.0358583 0.0125709,0 0.0228228,-0.0161102 0.0228228,-0.0358583 0,-0.0197559 -0.010252,-0.0358622 -0.0228228,-0.0358622z"/>
   <path id="_604935112" class="fil4" d="M3.49702 5.89346c-0.0107047,0 -0.0200197,0.0062126 -0.0263819,0.0162598 -0.00529134,0.0083622 -0.0085748,0.0196535 -0.0085748,0.0319252 0,0.0121378 0.00330709,0.0233819 0.00862992,0.0317087l-2.75591e-005 1.9685e-005c0.00633071,0.00990945 0.0156417,0.0160709 0.0263543,0.0160709 0.0107126,0 0.0200039,-0.00614961 0.0263504,-0.0160551 0.00533858,-0.00833465 0.00864961,-0.0195906 0.00864961,-0.0317441 0,-0.012311 -0.00328346,-0.0236299 -0.00858268,-0.0319882 -0.00635039,-0.0100157 -0.0156614,-0.0161969 -0.0264173,-0.0161969zm-0.00587008 0.0291732c0.0018937,-0.003 0.00400787,-0.0048622 0.00587008,-0.0048622 0.0018622,0 0.00399213,0.00187402 0.00590945,0.00489764 0.00295276,0.00465354 0.00477953,0.0113465 0.00477953,0.0189764 0,0.00746457 -0.00182283,0.0140551 -0.00475984,0.0186378 -0.00191732,0.00298819 -0.00405118,0.00485039 -0.00592913,0.00485039 -0.00182283,0 -0.00393307,-0.00187008 -0.00584646,-0.00486614l-4.33071e-005 0c-0.00293307,-0.00457874 -0.00475591,-0.0111654 -0.00475591,-0.018622 0,-0.00765748 0.00182677,-0.0143583 0.00477559,-0.0190118z"/>
   <line id="_604935208" class="fil3" x1="4.69233" y1="4.74117" x2="3.53085" y2= "4.74117" />
   <polygon id="_604935352" class="fil4" points="4.69233,4.73259 3.53085,4.73259 3.53085,4.74975 4.69233,4.74975 "/>
   <line id="_604935448" class="fil3" x1="4.76492" y1="4.77747" x2="3.58167" y2= "4.77747" />
   <polygon id="_604935520" class="fil4" points="4.76492,4.76889 3.58167,4.76889 3.58167,4.78604 4.76492,4.78604 "/>
   <line id="_604935808" class="fil3" x1="4.80122" y1="4.82828" x2="3.6107" y2= "4.82828" />
   <polygon id="_604935904" class="fil4" points="4.80122,4.8197 3.6107,4.8197 3.6107,4.83686 4.80122,4.83686 "/>
   <line id="_604935976" class="fil3" x1="4.81574" y1="4.87909" x2="3.61796" y2= "4.87909" />
   <polygon id="_604936072" class="fil4" points="4.81574,4.87052 3.61796,4.87052 3.61796,4.88767 4.81574,4.88767 "/>
   <line id="_604936336" class="fil3" x1="4.81574" y1="4.92265" x2="3.63974" y2= "4.92265" />
   <polygon id="_604936288" class="fil4" points="4.81574,4.91407 3.63974,4.91407 3.63974,4.93122 4.81574,4.93122 "/>
  </g>
 </g>
</svg>
